<mxfile host="Electron" agent="Mozilla/5.0 (Windows NT 10.0; Win64; x64) AppleWebKit/537.36 (KHTML, like Gecko) draw.io/26.2.2 Chrome/134.0.6998.178 Electron/35.1.2 Safari/537.36" version="26.2.2" pages="8">
  <diagram id="C5RBs43oDa-KdzZeNtuy" name="KeepaliveTask">
    <mxGraphModel dx="985" dy="572" grid="1" gridSize="10" guides="1" tooltips="1" connect="1" arrows="1" fold="1" page="1" pageScale="1" pageWidth="827" pageHeight="1169" math="0" shadow="0">
      <root>
        <mxCell id="WIyWlLk6GJQsqaUBKTNV-0" />
        <mxCell id="WIyWlLk6GJQsqaUBKTNV-1" parent="WIyWlLk6GJQsqaUBKTNV-0" />
        <mxCell id="WIyWlLk6GJQsqaUBKTNV-2" value="" style="rounded=0;html=1;jettySize=auto;orthogonalLoop=1;fontSize=11;endArrow=block;endFill=0;endSize=8;strokeWidth=1;shadow=0;labelBackgroundColor=none;edgeStyle=orthogonalEdgeStyle;entryX=0.5;entryY=0;entryDx=0;entryDy=0;" parent="WIyWlLk6GJQsqaUBKTNV-1" source="WIyWlLk6GJQsqaUBKTNV-3" target="WIyWlLk6GJQsqaUBKTNV-11" edge="1">
          <mxGeometry relative="1" as="geometry">
            <mxPoint x="413.5" y="170" as="targetPoint" />
          </mxGeometry>
        </mxCell>
        <mxCell id="WIyWlLk6GJQsqaUBKTNV-3" value="StartKeepaliveTask" style="rounded=1;whiteSpace=wrap;html=1;fontSize=12;glass=0;strokeWidth=1;shadow=0;fillColor=#fff2cc;strokeColor=#d6b656;" parent="WIyWlLk6GJQsqaUBKTNV-1" vertex="1">
          <mxGeometry x="353.5" y="80" width="120" height="40" as="geometry" />
        </mxCell>
        <mxCell id="zXoIMOyuc8eWKybNlCby-1" style="edgeStyle=orthogonalEdgeStyle;rounded=0;orthogonalLoop=1;jettySize=auto;html=1;entryX=0.5;entryY=0;entryDx=0;entryDy=0;" edge="1" parent="WIyWlLk6GJQsqaUBKTNV-1" source="WIyWlLk6GJQsqaUBKTNV-11" target="zXoIMOyuc8eWKybNlCby-0">
          <mxGeometry relative="1" as="geometry" />
        </mxCell>
        <mxCell id="WIyWlLk6GJQsqaUBKTNV-11" value="Čtení stavu tlačítek&lt;div&gt;debouncing&lt;/div&gt;" style="rounded=1;whiteSpace=wrap;html=1;fontSize=12;glass=0;strokeWidth=1;shadow=0;" parent="WIyWlLk6GJQsqaUBKTNV-1" vertex="1">
          <mxGeometry x="353.5" y="150" width="120" height="40" as="geometry" />
        </mxCell>
        <mxCell id="zXoIMOyuc8eWKybNlCby-3" style="edgeStyle=orthogonalEdgeStyle;rounded=0;orthogonalLoop=1;jettySize=auto;html=1;exitX=0;exitY=0.5;exitDx=0;exitDy=0;entryX=0.5;entryY=0;entryDx=0;entryDy=0;" edge="1" parent="WIyWlLk6GJQsqaUBKTNV-1" source="zXoIMOyuc8eWKybNlCby-0" target="zXoIMOyuc8eWKybNlCby-2">
          <mxGeometry relative="1" as="geometry" />
        </mxCell>
        <mxCell id="zXoIMOyuc8eWKybNlCby-4" value="BUTTON1" style="edgeLabel;html=1;align=center;verticalAlign=middle;resizable=0;points=[];" vertex="1" connectable="0" parent="zXoIMOyuc8eWKybNlCby-3">
          <mxGeometry x="-0.1967" y="2" relative="1" as="geometry">
            <mxPoint as="offset" />
          </mxGeometry>
        </mxCell>
        <mxCell id="zXoIMOyuc8eWKybNlCby-6" style="edgeStyle=orthogonalEdgeStyle;rounded=0;orthogonalLoop=1;jettySize=auto;html=1;exitX=0;exitY=1;exitDx=0;exitDy=0;entryX=0.5;entryY=0;entryDx=0;entryDy=0;" edge="1" parent="WIyWlLk6GJQsqaUBKTNV-1" source="zXoIMOyuc8eWKybNlCby-0" target="zXoIMOyuc8eWKybNlCby-5">
          <mxGeometry relative="1" as="geometry" />
        </mxCell>
        <mxCell id="zXoIMOyuc8eWKybNlCby-7" value="BUTTON2" style="edgeLabel;html=1;align=center;verticalAlign=middle;resizable=0;points=[];" vertex="1" connectable="0" parent="zXoIMOyuc8eWKybNlCby-6">
          <mxGeometry x="0.056" relative="1" as="geometry">
            <mxPoint as="offset" />
          </mxGeometry>
        </mxCell>
        <mxCell id="LwGfpBvGjsk9nYpxbM_s-2" style="edgeStyle=orthogonalEdgeStyle;rounded=0;orthogonalLoop=1;jettySize=auto;html=1;exitX=1;exitY=1;exitDx=0;exitDy=0;entryX=0.5;entryY=0;entryDx=0;entryDy=0;" edge="1" parent="WIyWlLk6GJQsqaUBKTNV-1" source="zXoIMOyuc8eWKybNlCby-0" target="zXoIMOyuc8eWKybNlCby-14">
          <mxGeometry relative="1" as="geometry" />
        </mxCell>
        <mxCell id="LwGfpBvGjsk9nYpxbM_s-3" value="BUTTON3" style="edgeLabel;html=1;align=center;verticalAlign=middle;resizable=0;points=[];" vertex="1" connectable="0" parent="LwGfpBvGjsk9nYpxbM_s-2">
          <mxGeometry x="0.2581" relative="1" as="geometry">
            <mxPoint as="offset" />
          </mxGeometry>
        </mxCell>
        <mxCell id="LwGfpBvGjsk9nYpxbM_s-4" style="edgeStyle=orthogonalEdgeStyle;rounded=0;orthogonalLoop=1;jettySize=auto;html=1;exitX=1;exitY=0.5;exitDx=0;exitDy=0;" edge="1" parent="WIyWlLk6GJQsqaUBKTNV-1" source="zXoIMOyuc8eWKybNlCby-0" target="LwGfpBvGjsk9nYpxbM_s-1">
          <mxGeometry relative="1" as="geometry" />
        </mxCell>
        <mxCell id="LwGfpBvGjsk9nYpxbM_s-5" value="BUTTON4" style="edgeLabel;html=1;align=center;verticalAlign=middle;resizable=0;points=[];" vertex="1" connectable="0" parent="LwGfpBvGjsk9nYpxbM_s-4">
          <mxGeometry x="-0.4049" y="1" relative="1" as="geometry">
            <mxPoint as="offset" />
          </mxGeometry>
        </mxCell>
        <mxCell id="zXoIMOyuc8eWKybNlCby-0" value="Nové tlačítko stisknuto" style="rhombus;whiteSpace=wrap;html=1;shadow=0;fontFamily=Helvetica;fontSize=12;align=center;strokeWidth=1;spacing=6;spacingTop=-4;" vertex="1" parent="WIyWlLk6GJQsqaUBKTNV-1">
          <mxGeometry x="342" y="220" width="143" height="80" as="geometry" />
        </mxCell>
        <mxCell id="LwGfpBvGjsk9nYpxbM_s-11" style="edgeStyle=orthogonalEdgeStyle;rounded=0;orthogonalLoop=1;jettySize=auto;html=1;" edge="1" parent="WIyWlLk6GJQsqaUBKTNV-1" source="zXoIMOyuc8eWKybNlCby-2">
          <mxGeometry relative="1" as="geometry">
            <mxPoint x="190" y="500" as="targetPoint" />
          </mxGeometry>
        </mxCell>
        <mxCell id="zXoIMOyuc8eWKybNlCby-2" value="Inverze polohy servomotoru" style="rounded=1;whiteSpace=wrap;html=1;fontSize=12;glass=0;strokeWidth=1;shadow=0;" vertex="1" parent="WIyWlLk6GJQsqaUBKTNV-1">
          <mxGeometry x="130" y="350" width="120" height="40" as="geometry" />
        </mxCell>
        <mxCell id="zXoIMOyuc8eWKybNlCby-9" style="edgeStyle=orthogonalEdgeStyle;rounded=0;orthogonalLoop=1;jettySize=auto;html=1;exitX=0.5;exitY=1;exitDx=0;exitDy=0;entryX=0.5;entryY=0;entryDx=0;entryDy=0;" edge="1" parent="WIyWlLk6GJQsqaUBKTNV-1" source="zXoIMOyuc8eWKybNlCby-5" target="zXoIMOyuc8eWKybNlCby-11">
          <mxGeometry relative="1" as="geometry">
            <mxPoint x="330" y="420" as="targetPoint" />
          </mxGeometry>
        </mxCell>
        <mxCell id="zXoIMOyuc8eWKybNlCby-5" value="Start failsafe timer" style="rounded=1;whiteSpace=wrap;html=1;fontSize=12;glass=0;strokeWidth=1;shadow=0;" vertex="1" parent="WIyWlLk6GJQsqaUBKTNV-1">
          <mxGeometry x="270" y="350" width="120" height="40" as="geometry" />
        </mxCell>
        <mxCell id="LwGfpBvGjsk9nYpxbM_s-10" style="edgeStyle=orthogonalEdgeStyle;rounded=0;orthogonalLoop=1;jettySize=auto;html=1;exitX=0.5;exitY=1;exitDx=0;exitDy=0;entryX=0;entryY=0.5;entryDx=0;entryDy=0;" edge="1" parent="WIyWlLk6GJQsqaUBKTNV-1" source="zXoIMOyuc8eWKybNlCby-11" target="WIyWlLk6GJQsqaUBKTNV-11">
          <mxGeometry relative="1" as="geometry">
            <mxPoint x="100" y="190" as="targetPoint" />
            <Array as="points">
              <mxPoint x="330" y="500" />
              <mxPoint x="80" y="500" />
              <mxPoint x="80" y="170" />
            </Array>
          </mxGeometry>
        </mxCell>
        <mxCell id="zXoIMOyuc8eWKybNlCby-11" value="Otevřít padák i v případě nedetekování volného pádu" style="rounded=1;whiteSpace=wrap;html=1;fontSize=12;glass=0;strokeWidth=1;shadow=0;" vertex="1" parent="WIyWlLk6GJQsqaUBKTNV-1">
          <mxGeometry x="270" y="430" width="120" height="50" as="geometry" />
        </mxCell>
        <mxCell id="LwGfpBvGjsk9nYpxbM_s-6" style="edgeStyle=orthogonalEdgeStyle;rounded=0;orthogonalLoop=1;jettySize=auto;html=1;exitX=0.75;exitY=1;exitDx=0;exitDy=0;entryX=0;entryY=0.5;entryDx=0;entryDy=0;" edge="1" parent="WIyWlLk6GJQsqaUBKTNV-1" source="zXoIMOyuc8eWKybNlCby-14" target="LwGfpBvGjsk9nYpxbM_s-0">
          <mxGeometry relative="1" as="geometry" />
        </mxCell>
        <mxCell id="LwGfpBvGjsk9nYpxbM_s-7" value="loggerState = ON" style="edgeLabel;html=1;align=center;verticalAlign=middle;resizable=0;points=[];" vertex="1" connectable="0" parent="LwGfpBvGjsk9nYpxbM_s-6">
          <mxGeometry x="0.3423" y="1" relative="1" as="geometry">
            <mxPoint x="-62" y="1" as="offset" />
          </mxGeometry>
        </mxCell>
        <mxCell id="LwGfpBvGjsk9nYpxbM_s-12" style="edgeStyle=orthogonalEdgeStyle;rounded=0;orthogonalLoop=1;jettySize=auto;html=1;" edge="1" parent="WIyWlLk6GJQsqaUBKTNV-1" source="zXoIMOyuc8eWKybNlCby-14">
          <mxGeometry relative="1" as="geometry">
            <mxPoint x="330" y="500" as="targetPoint" />
            <Array as="points">
              <mxPoint x="470" y="500" />
            </Array>
          </mxGeometry>
        </mxCell>
        <mxCell id="zXoIMOyuc8eWKybNlCby-14" value="Start logger" style="rounded=1;whiteSpace=wrap;html=1;fontSize=12;glass=0;strokeWidth=1;shadow=0;" vertex="1" parent="WIyWlLk6GJQsqaUBKTNV-1">
          <mxGeometry x="410" y="350" width="120" height="40" as="geometry" />
        </mxCell>
        <mxCell id="LwGfpBvGjsk9nYpxbM_s-0" value="loggerTask" style="rounded=1;whiteSpace=wrap;html=1;fontSize=12;glass=0;strokeWidth=1;shadow=0;fillColor=#fff2cc;strokeColor=#d6b656;" vertex="1" parent="WIyWlLk6GJQsqaUBKTNV-1">
          <mxGeometry x="707" y="430" width="120" height="24" as="geometry" />
        </mxCell>
        <mxCell id="LwGfpBvGjsk9nYpxbM_s-8" style="edgeStyle=orthogonalEdgeStyle;rounded=0;orthogonalLoop=1;jettySize=auto;html=1;exitX=0.75;exitY=1;exitDx=0;exitDy=0;entryX=0.25;entryY=0;entryDx=0;entryDy=0;" edge="1" parent="WIyWlLk6GJQsqaUBKTNV-1" source="LwGfpBvGjsk9nYpxbM_s-1" target="LwGfpBvGjsk9nYpxbM_s-0">
          <mxGeometry relative="1" as="geometry" />
        </mxCell>
        <mxCell id="LwGfpBvGjsk9nYpxbM_s-9" value="loggerState = OFF" style="edgeLabel;html=1;align=center;verticalAlign=middle;resizable=0;points=[];" vertex="1" connectable="0" parent="LwGfpBvGjsk9nYpxbM_s-8">
          <mxGeometry x="-0.1183" relative="1" as="geometry">
            <mxPoint as="offset" />
          </mxGeometry>
        </mxCell>
        <mxCell id="LwGfpBvGjsk9nYpxbM_s-13" style="edgeStyle=orthogonalEdgeStyle;rounded=0;orthogonalLoop=1;jettySize=auto;html=1;" edge="1" parent="WIyWlLk6GJQsqaUBKTNV-1" source="LwGfpBvGjsk9nYpxbM_s-1">
          <mxGeometry relative="1" as="geometry">
            <mxPoint x="470" y="500" as="targetPoint" />
            <Array as="points">
              <mxPoint x="610" y="500" />
            </Array>
          </mxGeometry>
        </mxCell>
        <mxCell id="LwGfpBvGjsk9nYpxbM_s-1" value="Stop logger" style="rounded=1;whiteSpace=wrap;html=1;fontSize=12;glass=0;strokeWidth=1;shadow=0;" vertex="1" parent="WIyWlLk6GJQsqaUBKTNV-1">
          <mxGeometry x="550" y="350" width="120" height="40" as="geometry" />
        </mxCell>
      </root>
    </mxGraphModel>
  </diagram>
  <diagram id="ucUdtKvbPNNOkaVsHXTh" name="HubTask">
    <mxGraphModel dx="827" dy="481" grid="1" gridSize="10" guides="1" tooltips="1" connect="1" arrows="1" fold="1" page="1" pageScale="1" pageWidth="827" pageHeight="1169" math="0" shadow="0">
      <root>
        <mxCell id="0" />
        <mxCell id="1" parent="0" />
        <mxCell id="9ZZQQHcm4yrNFa3EUmu--1" value="" style="rounded=0;html=1;jettySize=auto;orthogonalLoop=1;fontSize=11;endArrow=block;endFill=0;endSize=8;strokeWidth=1;shadow=0;labelBackgroundColor=none;edgeStyle=orthogonalEdgeStyle;entryX=0.5;entryY=0;entryDx=0;entryDy=0;" parent="1" source="9ZZQQHcm4yrNFa3EUmu--2" target="9ZZQQHcm4yrNFa3EUmu--3" edge="1">
          <mxGeometry relative="1" as="geometry">
            <mxPoint x="220" y="170" as="targetPoint" />
            <Array as="points">
              <mxPoint x="220" y="140" />
            </Array>
          </mxGeometry>
        </mxCell>
        <mxCell id="9ZZQQHcm4yrNFa3EUmu--2" value="StartHubTask" style="rounded=1;whiteSpace=wrap;html=1;fontSize=12;glass=0;strokeWidth=1;shadow=0;fillColor=#fff2cc;strokeColor=#d6b656;" parent="1" vertex="1">
          <mxGeometry x="160" y="80" width="120" height="40" as="geometry" />
        </mxCell>
        <mxCell id="9ZZQQHcm4yrNFa3EUmu--3" value="Reset&amp;nbsp;USB2514B" style="rounded=1;whiteSpace=wrap;html=1;fontSize=12;glass=0;strokeWidth=1;shadow=0;fontFamily=Helvetica;" parent="1" vertex="1">
          <mxGeometry x="160" y="140" width="120" height="20" as="geometry" />
        </mxCell>
        <mxCell id="9ZZQQHcm4yrNFa3EUmu--8" value="" style="rounded=0;html=1;jettySize=auto;orthogonalLoop=1;fontSize=11;endArrow=block;endFill=0;endSize=8;strokeWidth=1;shadow=0;labelBackgroundColor=none;edgeStyle=orthogonalEdgeStyle;entryX=0.5;entryY=0;entryDx=0;entryDy=0;exitX=0.5;exitY=1;exitDx=0;exitDy=0;" parent="1" source="9ZZQQHcm4yrNFa3EUmu--3" target="9ZZQQHcm4yrNFa3EUmu--9" edge="1">
          <mxGeometry relative="1" as="geometry">
            <mxPoint x="220" y="240" as="targetPoint" />
            <mxPoint x="220" y="190" as="sourcePoint" />
          </mxGeometry>
        </mxCell>
        <mxCell id="9ZZQQHcm4yrNFa3EUmu--9" value="Konfigurace VID, PID, porty, napájení" style="rounded=1;whiteSpace=wrap;html=1;fontSize=12;glass=0;strokeWidth=1;shadow=0;" parent="1" vertex="1">
          <mxGeometry x="160" y="180" width="120" height="40" as="geometry" />
        </mxCell>
        <mxCell id="9ZZQQHcm4yrNFa3EUmu--10" value="" style="rounded=0;html=1;jettySize=auto;orthogonalLoop=1;fontSize=11;endArrow=block;endFill=0;endSize=8;strokeWidth=1;shadow=0;labelBackgroundColor=none;edgeStyle=orthogonalEdgeStyle;entryX=0.5;entryY=0;entryDx=0;entryDy=0;exitX=0.5;exitY=1;exitDx=0;exitDy=0;" parent="1" source="9ZZQQHcm4yrNFa3EUmu--9" target="9ZZQQHcm4yrNFa3EUmu--11" edge="1">
          <mxGeometry relative="1" as="geometry">
            <mxPoint x="220" y="310" as="targetPoint" />
            <mxPoint x="210" y="270" as="sourcePoint" />
          </mxGeometry>
        </mxCell>
        <mxCell id="9ZZQQHcm4yrNFa3EUmu--11" value="USB_ATTACH" style="rounded=1;whiteSpace=wrap;html=1;fontSize=12;glass=0;strokeWidth=1;shadow=0;" parent="1" vertex="1">
          <mxGeometry x="160" y="240" width="120" height="20" as="geometry" />
        </mxCell>
      </root>
    </mxGraphModel>
  </diagram>
  <diagram id="ZbPNHWC2CUMZ7Jcg-B00" name="PowerTask">
    <mxGraphModel dx="2068" dy="1202" grid="1" gridSize="10" guides="1" tooltips="1" connect="1" arrows="1" fold="1" page="1" pageScale="1" pageWidth="827" pageHeight="1169" math="0" shadow="0">
      <root>
        <mxCell id="0" />
        <mxCell id="1" parent="0" />
        <mxCell id="qd5t5PDXwqZLrLWKUn9T-1" value="" style="rounded=0;html=1;jettySize=auto;orthogonalLoop=1;fontSize=11;endArrow=block;endFill=0;endSize=8;strokeWidth=1;shadow=0;labelBackgroundColor=none;edgeStyle=orthogonalEdgeStyle;entryX=0.5;entryY=0;entryDx=0;entryDy=0;" parent="1" source="qd5t5PDXwqZLrLWKUn9T-2" target="qd5t5PDXwqZLrLWKUn9T-3" edge="1">
          <mxGeometry relative="1" as="geometry">
            <mxPoint x="220" y="170" as="targetPoint" />
            <Array as="points">
              <mxPoint x="220" y="140" />
            </Array>
          </mxGeometry>
        </mxCell>
        <mxCell id="qd5t5PDXwqZLrLWKUn9T-2" value="StartPowerTask" style="rounded=1;whiteSpace=wrap;html=1;fontSize=12;glass=0;strokeWidth=1;shadow=0;fillColor=#fff2cc;strokeColor=#d6b656;" parent="1" vertex="1">
          <mxGeometry x="160" y="80" width="120" height="40" as="geometry" />
        </mxCell>
        <mxCell id="qd5t5PDXwqZLrLWKUn9T-3" value="Inicializace ADC DMA" style="rounded=1;whiteSpace=wrap;html=1;fontSize=12;glass=0;strokeWidth=1;shadow=0;fontFamily=Helvetica;" parent="1" vertex="1">
          <mxGeometry x="160" y="140" width="120" height="20" as="geometry" />
        </mxCell>
        <mxCell id="qd5t5PDXwqZLrLWKUn9T-4" value="" style="rounded=0;html=1;jettySize=auto;orthogonalLoop=1;fontSize=11;endArrow=block;endFill=0;endSize=8;strokeWidth=1;shadow=0;labelBackgroundColor=none;edgeStyle=orthogonalEdgeStyle;entryX=0.5;entryY=0;entryDx=0;entryDy=0;exitX=0.5;exitY=1;exitDx=0;exitDy=0;" parent="1" source="qd5t5PDXwqZLrLWKUn9T-3" target="qd5t5PDXwqZLrLWKUn9T-5" edge="1">
          <mxGeometry relative="1" as="geometry">
            <mxPoint x="220" y="240" as="targetPoint" />
            <mxPoint x="220" y="190" as="sourcePoint" />
          </mxGeometry>
        </mxCell>
        <mxCell id="qd5t5PDXwqZLrLWKUn9T-5" value="Uložení ADC hodnot" style="rounded=1;whiteSpace=wrap;html=1;fontSize=12;glass=0;strokeWidth=1;shadow=0;" parent="1" vertex="1">
          <mxGeometry x="160" y="180" width="120" height="20" as="geometry" />
        </mxCell>
        <mxCell id="qd5t5PDXwqZLrLWKUn9T-6" value="" style="rounded=0;html=1;jettySize=auto;orthogonalLoop=1;fontSize=11;endArrow=block;endFill=0;endSize=8;strokeWidth=1;shadow=0;labelBackgroundColor=none;edgeStyle=orthogonalEdgeStyle;entryX=0.5;entryY=0;entryDx=0;entryDy=0;exitX=0.5;exitY=1;exitDx=0;exitDy=0;" parent="1" source="qd5t5PDXwqZLrLWKUn9T-5" target="qd5t5PDXwqZLrLWKUn9T-7" edge="1">
          <mxGeometry relative="1" as="geometry">
            <mxPoint x="220" y="310" as="targetPoint" />
            <mxPoint x="210" y="270" as="sourcePoint" />
          </mxGeometry>
        </mxCell>
        <mxCell id="qd5t5PDXwqZLrLWKUn9T-7" value="Přepočet na fyzikální jednotky" style="rounded=1;whiteSpace=wrap;html=1;fontSize=12;glass=0;strokeWidth=1;shadow=0;" parent="1" vertex="1">
          <mxGeometry x="160" y="220" width="120" height="30" as="geometry" />
        </mxCell>
        <mxCell id="qd5t5PDXwqZLrLWKUn9T-10" value="" style="rounded=0;html=1;jettySize=auto;orthogonalLoop=1;fontSize=11;endArrow=block;endFill=0;endSize=8;strokeWidth=1;shadow=0;labelBackgroundColor=none;edgeStyle=orthogonalEdgeStyle;entryX=0.5;entryY=0;entryDx=0;entryDy=0;" parent="1" target="qyGDNY_KHpu4C1Kd26e8-1" edge="1">
          <mxGeometry relative="1" as="geometry">
            <mxPoint x="220" y="270" as="targetPoint" />
            <mxPoint x="220" y="250" as="sourcePoint" />
          </mxGeometry>
        </mxCell>
        <mxCell id="qd5t5PDXwqZLrLWKUn9T-12" value="IIR filtr &lt;br&gt;napětí&amp;nbsp;&lt;br&gt;baterie" style="rhombus;whiteSpace=wrap;html=1;shadow=0;fontFamily=Helvetica;fontSize=12;align=center;strokeWidth=1;spacing=6;spacingTop=-4;" parent="1" vertex="1">
          <mxGeometry x="170" y="310" width="100" height="80" as="geometry" />
        </mxCell>
        <mxCell id="qd5t5PDXwqZLrLWKUn9T-13" value="" style="rounded=0;html=1;jettySize=auto;orthogonalLoop=1;fontSize=11;endArrow=block;endFill=0;endSize=8;strokeWidth=1;shadow=0;labelBackgroundColor=none;edgeStyle=orthogonalEdgeStyle;entryX=0;entryY=0.5;entryDx=0;entryDy=0;exitX=0;exitY=0.5;exitDx=0;exitDy=0;" parent="1" source="qd5t5PDXwqZLrLWKUn9T-12" target="qd5t5PDXwqZLrLWKUn9T-3" edge="1">
          <mxGeometry relative="1" as="geometry">
            <mxPoint x="160" y="170" as="targetPoint" />
            <mxPoint x="150" y="350" as="sourcePoint" />
            <Array as="points">
              <mxPoint x="120" y="350" />
              <mxPoint x="120" y="150" />
            </Array>
          </mxGeometry>
        </mxCell>
        <mxCell id="qd5t5PDXwqZLrLWKUn9T-14" value="&amp;gt;3,5V" style="edgeLabel;html=1;align=center;verticalAlign=middle;resizable=0;points=[];" parent="qd5t5PDXwqZLrLWKUn9T-13" vertex="1" connectable="0">
          <mxGeometry x="-0.8512" y="-1" relative="1" as="geometry">
            <mxPoint y="-9" as="offset" />
          </mxGeometry>
        </mxCell>
        <mxCell id="qd5t5PDXwqZLrLWKUn9T-15" value="" style="rounded=0;html=1;jettySize=auto;orthogonalLoop=1;fontSize=11;endArrow=block;endFill=0;endSize=8;strokeWidth=1;shadow=0;labelBackgroundColor=none;edgeStyle=orthogonalEdgeStyle;exitX=0.5;exitY=1;exitDx=0;exitDy=0;entryX=0.5;entryY=0;entryDx=0;entryDy=0;" parent="1" source="qd5t5PDXwqZLrLWKUn9T-12" target="qd5t5PDXwqZLrLWKUn9T-16" edge="1">
          <mxGeometry relative="1" as="geometry">
            <mxPoint x="220" y="420" as="targetPoint" />
            <mxPoint x="240" y="310" as="sourcePoint" />
          </mxGeometry>
        </mxCell>
        <mxCell id="qd5t5PDXwqZLrLWKUn9T-17" value="&amp;lt;3,5V" style="edgeLabel;html=1;align=center;verticalAlign=middle;resizable=0;points=[];" parent="qd5t5PDXwqZLrLWKUn9T-15" vertex="1" connectable="0">
          <mxGeometry x="-0.2857" y="1" relative="1" as="geometry">
            <mxPoint x="19" as="offset" />
          </mxGeometry>
        </mxCell>
        <mxCell id="qd5t5PDXwqZLrLWKUn9T-16" value="Odpojení napájení" style="rounded=1;whiteSpace=wrap;html=1;fontSize=12;glass=0;strokeWidth=1;shadow=0;" parent="1" vertex="1">
          <mxGeometry x="160" y="420" width="120" height="20" as="geometry" />
        </mxCell>
        <mxCell id="qyGDNY_KHpu4C1Kd26e8-1" value="Uložení GUI statistik" style="rounded=1;whiteSpace=wrap;html=1;fontSize=12;glass=0;strokeWidth=1;shadow=0;" parent="1" vertex="1">
          <mxGeometry x="160" y="270" width="120" height="20" as="geometry" />
        </mxCell>
        <mxCell id="qyGDNY_KHpu4C1Kd26e8-3" value="" style="rounded=0;html=1;jettySize=auto;orthogonalLoop=1;fontSize=11;endArrow=block;endFill=0;endSize=8;strokeWidth=1;shadow=0;labelBackgroundColor=none;edgeStyle=orthogonalEdgeStyle;entryX=0.5;entryY=0;entryDx=0;entryDy=0;exitX=0.5;exitY=1;exitDx=0;exitDy=0;" parent="1" source="qyGDNY_KHpu4C1Kd26e8-1" target="qd5t5PDXwqZLrLWKUn9T-12" edge="1">
          <mxGeometry relative="1" as="geometry">
            <mxPoint x="230" y="280" as="targetPoint" />
            <mxPoint x="230" y="260" as="sourcePoint" />
          </mxGeometry>
        </mxCell>
      </root>
    </mxGraphModel>
  </diagram>
  <diagram name="LsmTask" id="N92R-dceSnTB6qoz1kQp">
    <mxGraphModel dx="985" dy="572" grid="1" gridSize="10" guides="1" tooltips="1" connect="1" arrows="1" fold="1" page="1" pageScale="1" pageWidth="827" pageHeight="1169" math="0" shadow="0">
      <root>
        <mxCell id="jsYXYs21CHqa7QGx6A7L-0" />
        <mxCell id="jsYXYs21CHqa7QGx6A7L-1" parent="jsYXYs21CHqa7QGx6A7L-0" />
        <mxCell id="jsYXYs21CHqa7QGx6A7L-2" value="" style="rounded=0;html=1;jettySize=auto;orthogonalLoop=1;fontSize=11;endArrow=block;endFill=0;endSize=8;strokeWidth=1;shadow=0;labelBackgroundColor=none;edgeStyle=orthogonalEdgeStyle;entryX=0.5;entryY=0;entryDx=0;entryDy=0;" parent="jsYXYs21CHqa7QGx6A7L-1" source="jsYXYs21CHqa7QGx6A7L-3" target="jsYXYs21CHqa7QGx6A7L-4" edge="1">
          <mxGeometry relative="1" as="geometry">
            <mxPoint x="340" y="210" as="targetPoint" />
            <Array as="points">
              <mxPoint x="340" y="180" />
            </Array>
          </mxGeometry>
        </mxCell>
        <mxCell id="jsYXYs21CHqa7QGx6A7L-3" value="StartLsmTask" style="rounded=1;whiteSpace=wrap;html=1;fontSize=12;glass=0;strokeWidth=1;shadow=0;fillColor=#fff2cc;strokeColor=#d6b656;" parent="jsYXYs21CHqa7QGx6A7L-1" vertex="1">
          <mxGeometry x="280" y="120" width="120" height="40" as="geometry" />
        </mxCell>
        <mxCell id="pHMnqsejT17B0JevDS74-3" style="edgeStyle=orthogonalEdgeStyle;rounded=0;orthogonalLoop=1;jettySize=auto;html=1;exitX=0.5;exitY=1;exitDx=0;exitDy=0;entryX=0.5;entryY=0;entryDx=0;entryDy=0;" edge="1" parent="jsYXYs21CHqa7QGx6A7L-1" source="jsYXYs21CHqa7QGx6A7L-4" target="pHMnqsejT17B0JevDS74-1">
          <mxGeometry relative="1" as="geometry" />
        </mxCell>
        <mxCell id="jsYXYs21CHqa7QGx6A7L-4" value="Inicializace LSM303" style="rounded=1;whiteSpace=wrap;html=1;fontSize=12;glass=0;strokeWidth=1;shadow=0;fontFamily=Helvetica;" parent="jsYXYs21CHqa7QGx6A7L-1" vertex="1">
          <mxGeometry x="280" y="180" width="120" height="20" as="geometry" />
        </mxCell>
        <mxCell id="ioCwiMggKOSfTDHAr74E-7" style="edgeStyle=orthogonalEdgeStyle;rounded=0;orthogonalLoop=1;jettySize=auto;html=1;entryX=0.5;entryY=0;entryDx=0;entryDy=0;shadow=0;strokeColor=default;strokeWidth=1;align=center;verticalAlign=middle;fontFamily=Helvetica;fontSize=11;fontColor=default;labelBackgroundColor=none;endArrow=block;endFill=0;endSize=8;" parent="jsYXYs21CHqa7QGx6A7L-1" source="ioCwiMggKOSfTDHAr74E-0" target="ioCwiMggKOSfTDHAr74E-6" edge="1">
          <mxGeometry relative="1" as="geometry">
            <Array as="points">
              <mxPoint x="340" y="280" />
              <mxPoint x="340" y="280" />
            </Array>
          </mxGeometry>
        </mxCell>
        <mxCell id="ioCwiMggKOSfTDHAr74E-0" value="Čekání na dataReady" style="rounded=1;whiteSpace=wrap;html=1;fontSize=12;glass=0;strokeWidth=1;shadow=0;fontFamily=Helvetica;" parent="jsYXYs21CHqa7QGx6A7L-1" vertex="1">
          <mxGeometry x="280" y="260" width="120" height="20" as="geometry" />
        </mxCell>
        <mxCell id="ioCwiMggKOSfTDHAr74E-9" style="edgeStyle=orthogonalEdgeStyle;rounded=0;orthogonalLoop=1;jettySize=auto;html=1;entryX=0.5;entryY=0;entryDx=0;entryDy=0;shadow=0;strokeColor=default;strokeWidth=1;align=center;verticalAlign=middle;fontFamily=Helvetica;fontSize=11;fontColor=default;labelBackgroundColor=none;endArrow=block;endFill=0;endSize=8;" parent="jsYXYs21CHqa7QGx6A7L-1" source="ioCwiMggKOSfTDHAr74E-6" target="ioCwiMggKOSfTDHAr74E-8" edge="1">
          <mxGeometry relative="1" as="geometry">
            <Array as="points">
              <mxPoint x="340" y="340" />
              <mxPoint x="340" y="340" />
            </Array>
          </mxGeometry>
        </mxCell>
        <mxCell id="ioCwiMggKOSfTDHAr74E-6" value="Přepočet dat do fyzikálních jednotek" style="rounded=1;whiteSpace=wrap;html=1;fontSize=12;glass=0;strokeWidth=1;shadow=0;fontFamily=Helvetica;" parent="jsYXYs21CHqa7QGx6A7L-1" vertex="1">
          <mxGeometry x="280" y="300" width="120" height="30" as="geometry" />
        </mxCell>
        <mxCell id="ioCwiMggKOSfTDHAr74E-10" style="edgeStyle=orthogonalEdgeStyle;rounded=0;orthogonalLoop=1;jettySize=auto;html=1;shadow=0;strokeColor=default;strokeWidth=1;align=center;verticalAlign=middle;fontFamily=Helvetica;fontSize=11;fontColor=default;labelBackgroundColor=none;endArrow=block;endFill=0;shape=flexArrow;entryX=0;entryY=0.5;entryDx=0;entryDy=0;" parent="jsYXYs21CHqa7QGx6A7L-1" source="ioCwiMggKOSfTDHAr74E-8" target="p3-IMholyK1FQ8p68zha-3" edge="1">
          <mxGeometry relative="1" as="geometry">
            <mxPoint x="480" y="365" as="targetPoint" />
          </mxGeometry>
        </mxCell>
        <mxCell id="ioCwiMggKOSfTDHAr74E-11" value="lsmQueue" style="edgeLabel;html=1;align=center;verticalAlign=middle;resizable=0;points=[];fontFamily=Helvetica;fontSize=11;fontColor=default;labelBackgroundColor=none;" parent="ioCwiMggKOSfTDHAr74E-10" vertex="1" connectable="0">
          <mxGeometry x="-0.2453" relative="1" as="geometry">
            <mxPoint y="-15" as="offset" />
          </mxGeometry>
        </mxCell>
        <mxCell id="ioCwiMggKOSfTDHAr74E-8" value="Odeslání zaznamenaných dat" style="rounded=1;whiteSpace=wrap;html=1;fontSize=12;glass=0;strokeWidth=1;shadow=0;fontFamily=Helvetica;" parent="jsYXYs21CHqa7QGx6A7L-1" vertex="1">
          <mxGeometry x="280" y="350" width="120" height="30" as="geometry" />
        </mxCell>
        <mxCell id="p3-IMholyK1FQ8p68zha-2" style="edgeStyle=orthogonalEdgeStyle;rounded=0;orthogonalLoop=1;jettySize=auto;html=1;entryX=0;entryY=0.5;entryDx=0;entryDy=0;shadow=0;strokeColor=default;strokeWidth=1;align=center;verticalAlign=middle;fontFamily=Helvetica;fontSize=11;fontColor=default;labelBackgroundColor=none;endArrow=block;endFill=0;endSize=8;exitX=0.5;exitY=1;exitDx=0;exitDy=0;" parent="jsYXYs21CHqa7QGx6A7L-1" source="ioCwiMggKOSfTDHAr74E-8" target="pHMnqsejT17B0JevDS74-1" edge="1">
          <mxGeometry relative="1" as="geometry">
            <Array as="points">
              <mxPoint x="340" y="410" />
              <mxPoint x="260" y="410" />
              <mxPoint x="260" y="230" />
            </Array>
            <mxPoint x="280" y="410" as="sourcePoint" />
          </mxGeometry>
        </mxCell>
        <mxCell id="p3-IMholyK1FQ8p68zha-3" value="mpuTask" style="rounded=1;whiteSpace=wrap;html=1;fontSize=12;glass=0;strokeWidth=1;shadow=0;fillColor=#fff2cc;strokeColor=#d6b656;" parent="jsYXYs21CHqa7QGx6A7L-1" vertex="1">
          <mxGeometry x="490" y="345" width="120" height="40" as="geometry" />
        </mxCell>
        <mxCell id="pHMnqsejT17B0JevDS74-4" style="edgeStyle=orthogonalEdgeStyle;rounded=0;orthogonalLoop=1;jettySize=auto;html=1;exitX=0.5;exitY=1;exitDx=0;exitDy=0;" edge="1" parent="jsYXYs21CHqa7QGx6A7L-1" source="pHMnqsejT17B0JevDS74-1" target="ioCwiMggKOSfTDHAr74E-0">
          <mxGeometry relative="1" as="geometry" />
        </mxCell>
        <mxCell id="pHMnqsejT17B0JevDS74-1" value="Čekání na I2C mutex" style="rounded=1;whiteSpace=wrap;html=1;fontSize=12;glass=0;strokeWidth=1;shadow=0;fontFamily=Helvetica;" vertex="1" parent="jsYXYs21CHqa7QGx6A7L-1">
          <mxGeometry x="280" y="220" width="120" height="20" as="geometry" />
        </mxCell>
      </root>
    </mxGraphModel>
  </diagram>
  <diagram name="bmpTask" id="ResxyW9x5Gh87bPYoPCV">
    <mxGraphModel dx="1182" dy="687" grid="1" gridSize="10" guides="1" tooltips="1" connect="1" arrows="1" fold="1" page="1" pageScale="1" pageWidth="827" pageHeight="1169" math="0" shadow="0">
      <root>
        <mxCell id="eYiT4ySwV138M8RZw6sM-0" />
        <mxCell id="eYiT4ySwV138M8RZw6sM-1" parent="eYiT4ySwV138M8RZw6sM-0" />
        <mxCell id="eYiT4ySwV138M8RZw6sM-2" value="" style="rounded=0;html=1;jettySize=auto;orthogonalLoop=1;fontSize=11;endArrow=block;endFill=0;endSize=8;strokeWidth=1;shadow=0;labelBackgroundColor=none;edgeStyle=orthogonalEdgeStyle;entryX=0.5;entryY=0;entryDx=0;entryDy=0;" edge="1" parent="eYiT4ySwV138M8RZw6sM-1" source="eYiT4ySwV138M8RZw6sM-3" target="eYiT4ySwV138M8RZw6sM-5">
          <mxGeometry relative="1" as="geometry">
            <mxPoint x="340" y="210" as="targetPoint" />
            <Array as="points">
              <mxPoint x="340" y="180" />
            </Array>
          </mxGeometry>
        </mxCell>
        <mxCell id="eYiT4ySwV138M8RZw6sM-3" value="StartBmpTask" style="rounded=1;whiteSpace=wrap;html=1;fontSize=12;glass=0;strokeWidth=1;shadow=0;fillColor=#fff2cc;strokeColor=#d6b656;" vertex="1" parent="eYiT4ySwV138M8RZw6sM-1">
          <mxGeometry x="280" y="120" width="120" height="40" as="geometry" />
        </mxCell>
        <mxCell id="eYiT4ySwV138M8RZw6sM-4" style="edgeStyle=orthogonalEdgeStyle;rounded=0;orthogonalLoop=1;jettySize=auto;html=1;exitX=0.5;exitY=1;exitDx=0;exitDy=0;entryX=0.5;entryY=0;entryDx=0;entryDy=0;" edge="1" parent="eYiT4ySwV138M8RZw6sM-1" source="eYiT4ySwV138M8RZw6sM-5" target="eYiT4ySwV138M8RZw6sM-16">
          <mxGeometry relative="1" as="geometry" />
        </mxCell>
        <mxCell id="eYiT4ySwV138M8RZw6sM-5" value="Inicializace BMP280" style="rounded=1;whiteSpace=wrap;html=1;fontSize=12;glass=0;strokeWidth=1;shadow=0;fontFamily=Helvetica;" vertex="1" parent="eYiT4ySwV138M8RZw6sM-1">
          <mxGeometry x="280" y="180" width="120" height="20" as="geometry" />
        </mxCell>
        <mxCell id="eYiT4ySwV138M8RZw6sM-6" style="edgeStyle=orthogonalEdgeStyle;rounded=0;orthogonalLoop=1;jettySize=auto;html=1;entryX=0.5;entryY=0;entryDx=0;entryDy=0;shadow=0;strokeColor=default;strokeWidth=1;align=center;verticalAlign=middle;fontFamily=Helvetica;fontSize=11;fontColor=default;labelBackgroundColor=none;endArrow=block;endFill=0;endSize=8;" edge="1" parent="eYiT4ySwV138M8RZw6sM-1" source="eYiT4ySwV138M8RZw6sM-7" target="eYiT4ySwV138M8RZw6sM-9">
          <mxGeometry relative="1" as="geometry">
            <Array as="points">
              <mxPoint x="340" y="280" />
              <mxPoint x="340" y="280" />
            </Array>
          </mxGeometry>
        </mxCell>
        <mxCell id="eYiT4ySwV138M8RZw6sM-7" value="Čekání na dataReady" style="rounded=1;whiteSpace=wrap;html=1;fontSize=12;glass=0;strokeWidth=1;shadow=0;fontFamily=Helvetica;" vertex="1" parent="eYiT4ySwV138M8RZw6sM-1">
          <mxGeometry x="280" y="260" width="120" height="20" as="geometry" />
        </mxCell>
        <mxCell id="eYiT4ySwV138M8RZw6sM-8" style="edgeStyle=orthogonalEdgeStyle;rounded=0;orthogonalLoop=1;jettySize=auto;html=1;entryX=0.5;entryY=0;entryDx=0;entryDy=0;shadow=0;strokeColor=default;strokeWidth=1;align=center;verticalAlign=middle;fontFamily=Helvetica;fontSize=11;fontColor=default;labelBackgroundColor=none;endArrow=block;endFill=0;endSize=8;" edge="1" parent="eYiT4ySwV138M8RZw6sM-1" source="eYiT4ySwV138M8RZw6sM-9" target="eYiT4ySwV138M8RZw6sM-12">
          <mxGeometry relative="1" as="geometry">
            <Array as="points">
              <mxPoint x="340" y="340" />
              <mxPoint x="340" y="340" />
            </Array>
          </mxGeometry>
        </mxCell>
        <mxCell id="eYiT4ySwV138M8RZw6sM-9" value="Přepočet dat do fyzikálních jednotek" style="rounded=1;whiteSpace=wrap;html=1;fontSize=12;glass=0;strokeWidth=1;shadow=0;fontFamily=Helvetica;" vertex="1" parent="eYiT4ySwV138M8RZw6sM-1">
          <mxGeometry x="280" y="300" width="120" height="30" as="geometry" />
        </mxCell>
        <mxCell id="eYiT4ySwV138M8RZw6sM-10" style="edgeStyle=orthogonalEdgeStyle;rounded=0;orthogonalLoop=1;jettySize=auto;html=1;shadow=0;strokeColor=default;strokeWidth=1;align=center;verticalAlign=middle;fontFamily=Helvetica;fontSize=11;fontColor=default;labelBackgroundColor=none;endArrow=block;endFill=0;shape=flexArrow;entryX=0;entryY=0.5;entryDx=0;entryDy=0;" edge="1" parent="eYiT4ySwV138M8RZw6sM-1" source="eYiT4ySwV138M8RZw6sM-12" target="eYiT4ySwV138M8RZw6sM-14">
          <mxGeometry relative="1" as="geometry">
            <mxPoint x="480" y="365" as="targetPoint" />
          </mxGeometry>
        </mxCell>
        <mxCell id="eYiT4ySwV138M8RZw6sM-11" value="bmpQueue" style="edgeLabel;html=1;align=center;verticalAlign=middle;resizable=0;points=[];fontFamily=Helvetica;fontSize=11;fontColor=default;labelBackgroundColor=none;" vertex="1" connectable="0" parent="eYiT4ySwV138M8RZw6sM-10">
          <mxGeometry x="-0.2453" relative="1" as="geometry">
            <mxPoint y="-15" as="offset" />
          </mxGeometry>
        </mxCell>
        <mxCell id="eYiT4ySwV138M8RZw6sM-12" value="Odeslání zaznamenaných dat" style="rounded=1;whiteSpace=wrap;html=1;fontSize=12;glass=0;strokeWidth=1;shadow=0;fontFamily=Helvetica;" vertex="1" parent="eYiT4ySwV138M8RZw6sM-1">
          <mxGeometry x="280" y="350" width="120" height="30" as="geometry" />
        </mxCell>
        <mxCell id="eYiT4ySwV138M8RZw6sM-13" style="edgeStyle=orthogonalEdgeStyle;rounded=0;orthogonalLoop=1;jettySize=auto;html=1;entryX=0;entryY=0.5;entryDx=0;entryDy=0;shadow=0;strokeColor=default;strokeWidth=1;align=center;verticalAlign=middle;fontFamily=Helvetica;fontSize=11;fontColor=default;labelBackgroundColor=none;endArrow=block;endFill=0;endSize=8;exitX=0.5;exitY=1;exitDx=0;exitDy=0;" edge="1" parent="eYiT4ySwV138M8RZw6sM-1" source="eYiT4ySwV138M8RZw6sM-12" target="eYiT4ySwV138M8RZw6sM-16">
          <mxGeometry relative="1" as="geometry">
            <Array as="points">
              <mxPoint x="340" y="410" />
              <mxPoint x="260" y="410" />
              <mxPoint x="260" y="230" />
            </Array>
            <mxPoint x="280" y="410" as="sourcePoint" />
          </mxGeometry>
        </mxCell>
        <mxCell id="eYiT4ySwV138M8RZw6sM-14" value="mpuTask" style="rounded=1;whiteSpace=wrap;html=1;fontSize=12;glass=0;strokeWidth=1;shadow=0;fillColor=#fff2cc;strokeColor=#d6b656;" vertex="1" parent="eYiT4ySwV138M8RZw6sM-1">
          <mxGeometry x="490" y="345" width="120" height="40" as="geometry" />
        </mxCell>
        <mxCell id="eYiT4ySwV138M8RZw6sM-15" style="edgeStyle=orthogonalEdgeStyle;rounded=0;orthogonalLoop=1;jettySize=auto;html=1;exitX=0.5;exitY=1;exitDx=0;exitDy=0;" edge="1" parent="eYiT4ySwV138M8RZw6sM-1" source="eYiT4ySwV138M8RZw6sM-16" target="eYiT4ySwV138M8RZw6sM-7">
          <mxGeometry relative="1" as="geometry" />
        </mxCell>
        <mxCell id="eYiT4ySwV138M8RZw6sM-16" value="Čekání na I2C mutex" style="rounded=1;whiteSpace=wrap;html=1;fontSize=12;glass=0;strokeWidth=1;shadow=0;fontFamily=Helvetica;" vertex="1" parent="eYiT4ySwV138M8RZw6sM-1">
          <mxGeometry x="280" y="220" width="120" height="20" as="geometry" />
        </mxCell>
      </root>
    </mxGraphModel>
  </diagram>
  <diagram name="MpuTask" id="pP6uxZweKrDmrcmnhpT3">
    <mxGraphModel dx="2253" dy="829" grid="1" gridSize="10" guides="1" tooltips="1" connect="1" arrows="1" fold="1" page="1" pageScale="1" pageWidth="827" pageHeight="1169" math="0" shadow="0">
      <root>
        <mxCell id="zWkxw4Bb1DJtnc9ucGg8-0" />
        <mxCell id="zWkxw4Bb1DJtnc9ucGg8-1" parent="zWkxw4Bb1DJtnc9ucGg8-0" />
        <mxCell id="xLPrdjITHXCchPHpCiGO-0" value="" style="rounded=0;html=1;jettySize=auto;orthogonalLoop=1;fontSize=11;endArrow=block;endFill=0;endSize=8;strokeWidth=1;shadow=0;labelBackgroundColor=none;edgeStyle=orthogonalEdgeStyle;entryX=0.5;entryY=0;entryDx=0;entryDy=0;" edge="1" parent="zWkxw4Bb1DJtnc9ucGg8-1" source="xLPrdjITHXCchPHpCiGO-1" target="xLPrdjITHXCchPHpCiGO-3">
          <mxGeometry relative="1" as="geometry">
            <mxPoint x="140" y="140" as="targetPoint" />
            <Array as="points">
              <mxPoint x="140" y="110" />
            </Array>
          </mxGeometry>
        </mxCell>
        <mxCell id="xLPrdjITHXCchPHpCiGO-1" value="StartMpuTask" style="rounded=1;whiteSpace=wrap;html=1;fontSize=12;glass=0;strokeWidth=1;shadow=0;fillColor=#fff2cc;strokeColor=#d6b656;" vertex="1" parent="zWkxw4Bb1DJtnc9ucGg8-1">
          <mxGeometry x="80" y="50" width="120" height="40" as="geometry" />
        </mxCell>
        <mxCell id="xLPrdjITHXCchPHpCiGO-3" value="Inicializace MPU6050" style="rounded=1;whiteSpace=wrap;html=1;fontSize=12;glass=0;strokeWidth=1;shadow=0;fontFamily=Helvetica;" vertex="1" parent="zWkxw4Bb1DJtnc9ucGg8-1">
          <mxGeometry x="80" y="110" width="120" height="20" as="geometry" />
        </mxCell>
        <mxCell id="xLPrdjITHXCchPHpCiGO-4" value="GPIO přerušení IMU data ready" style="rounded=0;whiteSpace=wrap;html=1;fontSize=12;glass=0;strokeWidth=1;shadow=0;fillColor=#f8cecc;strokeColor=#b85450;" vertex="1" parent="zWkxw4Bb1DJtnc9ucGg8-1">
          <mxGeometry x="214" y="50" width="120" height="50" as="geometry" />
        </mxCell>
        <mxCell id="xLPrdjITHXCchPHpCiGO-5" value="" style="rounded=0;html=1;jettySize=auto;orthogonalLoop=1;fontSize=11;endArrow=block;endFill=0;endSize=8;strokeWidth=1;shadow=0;labelBackgroundColor=none;edgeStyle=orthogonalEdgeStyle;entryX=0.5;entryY=0;entryDx=0;entryDy=0;exitX=0.5;exitY=1;exitDx=0;exitDy=0;" edge="1" parent="zWkxw4Bb1DJtnc9ucGg8-1" source="xLPrdjITHXCchPHpCiGO-4" target="xLPrdjITHXCchPHpCiGO-8">
          <mxGeometry relative="1" as="geometry">
            <mxPoint x="274" y="120" as="targetPoint" />
            <mxPoint x="264" y="140" as="sourcePoint" />
          </mxGeometry>
        </mxCell>
        <mxCell id="xLPrdjITHXCchPHpCiGO-6" style="edgeStyle=orthogonalEdgeStyle;rounded=0;orthogonalLoop=1;jettySize=auto;html=1;entryX=0.5;entryY=0;entryDx=0;entryDy=0;shadow=0;strokeColor=default;strokeWidth=1;align=center;verticalAlign=middle;fontFamily=Helvetica;fontSize=11;fontColor=default;labelBackgroundColor=none;endArrow=block;endFill=0;endSize=8;" edge="1" parent="zWkxw4Bb1DJtnc9ucGg8-1" source="xLPrdjITHXCchPHpCiGO-7" target="xLPrdjITHXCchPHpCiGO-13">
          <mxGeometry relative="1" as="geometry">
            <Array as="points">
              <mxPoint x="140" y="220" />
              <mxPoint x="140" y="220" />
            </Array>
          </mxGeometry>
        </mxCell>
        <mxCell id="xLPrdjITHXCchPHpCiGO-7" value="Čekání na semafor" style="rounded=1;whiteSpace=wrap;html=1;fontSize=12;glass=0;strokeWidth=1;shadow=0;fontFamily=Helvetica;" vertex="1" parent="zWkxw4Bb1DJtnc9ucGg8-1">
          <mxGeometry x="80" y="200" width="120" height="20" as="geometry" />
        </mxCell>
        <mxCell id="xLPrdjITHXCchPHpCiGO-8" value="I2C DMA přenos" style="rounded=1;whiteSpace=wrap;html=1;fontSize=12;glass=0;strokeWidth=1;shadow=0;fontFamily=Helvetica;" vertex="1" parent="zWkxw4Bb1DJtnc9ucGg8-1">
          <mxGeometry x="214" y="120" width="120" height="20" as="geometry" />
        </mxCell>
        <mxCell id="xLPrdjITHXCchPHpCiGO-9" value="I2C přerušení RxCplt" style="rounded=0;whiteSpace=wrap;html=1;fontSize=12;glass=0;strokeWidth=1;shadow=0;fillColor=#f8cecc;strokeColor=#b85450;" vertex="1" parent="zWkxw4Bb1DJtnc9ucGg8-1">
          <mxGeometry x="350" y="50" width="120" height="50" as="geometry" />
        </mxCell>
        <mxCell id="xLPrdjITHXCchPHpCiGO-10" value="" style="rounded=0;html=1;jettySize=auto;orthogonalLoop=1;fontSize=11;endArrow=block;endFill=0;endSize=8;strokeWidth=1;shadow=0;labelBackgroundColor=none;edgeStyle=orthogonalEdgeStyle;entryX=0.5;entryY=0;entryDx=0;entryDy=0;exitX=0.5;exitY=1;exitDx=0;exitDy=0;" edge="1" parent="zWkxw4Bb1DJtnc9ucGg8-1" source="xLPrdjITHXCchPHpCiGO-9" target="xLPrdjITHXCchPHpCiGO-11">
          <mxGeometry relative="1" as="geometry">
            <mxPoint x="410" y="120" as="targetPoint" />
            <mxPoint x="400" y="140" as="sourcePoint" />
          </mxGeometry>
        </mxCell>
        <mxCell id="xLPrdjITHXCchPHpCiGO-11" value="uvolnění semaforu" style="rounded=1;whiteSpace=wrap;html=1;fontSize=12;glass=0;strokeWidth=1;shadow=0;fontFamily=Helvetica;" vertex="1" parent="zWkxw4Bb1DJtnc9ucGg8-1">
          <mxGeometry x="350" y="120" width="120" height="20" as="geometry" />
        </mxCell>
        <mxCell id="xLPrdjITHXCchPHpCiGO-13" value="Přepočet dat do fyzikálních jednotek" style="rounded=1;whiteSpace=wrap;html=1;fontSize=12;glass=0;strokeWidth=1;shadow=0;fontFamily=Helvetica;" vertex="1" parent="zWkxw4Bb1DJtnc9ucGg8-1">
          <mxGeometry x="80" y="240" width="120" height="50" as="geometry" />
        </mxCell>
        <mxCell id="xLPrdjITHXCchPHpCiGO-14" style="edgeStyle=orthogonalEdgeStyle;rounded=0;orthogonalLoop=1;jettySize=auto;html=1;entryX=0.5;entryY=0;entryDx=0;entryDy=0;shadow=0;strokeColor=default;strokeWidth=1;align=center;verticalAlign=middle;fontFamily=Helvetica;fontSize=11;fontColor=default;labelBackgroundColor=none;endArrow=block;endFill=0;endSize=8;exitX=0.5;exitY=1;exitDx=0;exitDy=0;" edge="1" parent="zWkxw4Bb1DJtnc9ucGg8-1" source="xLPrdjITHXCchPHpCiGO-3" target="xLPrdjITHXCchPHpCiGO-7">
          <mxGeometry relative="1" as="geometry">
            <Array as="points" />
            <mxPoint x="140" y="180" as="sourcePoint" />
          </mxGeometry>
        </mxCell>
        <mxCell id="xLPrdjITHXCchPHpCiGO-16" style="edgeStyle=orthogonalEdgeStyle;rounded=0;orthogonalLoop=1;jettySize=auto;html=1;shadow=0;strokeColor=default;strokeWidth=1;align=center;verticalAlign=middle;fontFamily=Helvetica;fontSize=11;fontColor=default;labelBackgroundColor=none;endArrow=block;endFill=0;shape=flexArrow;exitX=0;exitY=0.5;exitDx=0;exitDy=0;entryX=1;entryY=0.5;entryDx=0;entryDy=0;" edge="1" parent="zWkxw4Bb1DJtnc9ucGg8-1" source="xLPrdjITHXCchPHpCiGO-18" target="xLPrdjITHXCchPHpCiGO-25">
          <mxGeometry relative="1" as="geometry">
            <mxPoint x="563" y="210" as="targetPoint" />
            <mxPoint x="643" y="210" as="sourcePoint" />
          </mxGeometry>
        </mxCell>
        <mxCell id="xLPrdjITHXCchPHpCiGO-17" value="bmpQueue" style="edgeLabel;html=1;align=center;verticalAlign=middle;resizable=0;points=[];fontFamily=Helvetica;fontSize=11;fontColor=default;labelBackgroundColor=none;" vertex="1" connectable="0" parent="xLPrdjITHXCchPHpCiGO-16">
          <mxGeometry x="-0.2453" relative="1" as="geometry">
            <mxPoint y="-15" as="offset" />
          </mxGeometry>
        </mxCell>
        <mxCell id="xLPrdjITHXCchPHpCiGO-18" value="bmpTask" style="rounded=1;whiteSpace=wrap;html=1;fontSize=12;glass=0;strokeWidth=1;shadow=0;fillColor=#fff2cc;strokeColor=#d6b656;" vertex="1" parent="zWkxw4Bb1DJtnc9ucGg8-1">
          <mxGeometry x="663" y="190" width="120" height="40" as="geometry" />
        </mxCell>
        <mxCell id="xLPrdjITHXCchPHpCiGO-19" style="edgeStyle=orthogonalEdgeStyle;rounded=0;orthogonalLoop=1;jettySize=auto;html=1;shadow=0;strokeColor=default;strokeWidth=1;align=center;verticalAlign=middle;fontFamily=Helvetica;fontSize=11;fontColor=default;labelBackgroundColor=none;endArrow=block;endFill=0;endSize=8;exitX=0.5;exitY=1;exitDx=0;exitDy=0;" edge="1" parent="zWkxw4Bb1DJtnc9ucGg8-1" source="xLPrdjITHXCchPHpCiGO-13">
          <mxGeometry relative="1" as="geometry">
            <mxPoint x="140" y="300" as="sourcePoint" />
            <mxPoint x="140" y="320" as="targetPoint" />
            <Array as="points">
              <mxPoint x="140" y="320" />
              <mxPoint x="140" y="320" />
            </Array>
          </mxGeometry>
        </mxCell>
        <mxCell id="xLPrdjITHXCchPHpCiGO-21" style="edgeStyle=orthogonalEdgeStyle;rounded=0;orthogonalLoop=1;jettySize=auto;html=1;entryX=1;entryY=0.5;entryDx=0;entryDy=0;shadow=0;strokeColor=default;strokeWidth=1;align=center;verticalAlign=middle;fontFamily=Helvetica;fontSize=11;fontColor=default;labelBackgroundColor=none;endArrow=block;endFill=0;endSize=8;" edge="1" parent="zWkxw4Bb1DJtnc9ucGg8-1" source="xLPrdjITHXCchPHpCiGO-25" target="xLPrdjITHXCchPHpCiGO-36">
          <mxGeometry relative="1" as="geometry" />
        </mxCell>
        <mxCell id="xLPrdjITHXCchPHpCiGO-22" value="Ne" style="edgeLabel;html=1;align=center;verticalAlign=middle;resizable=0;points=[];fontFamily=Helvetica;fontSize=11;fontColor=default;labelBackgroundColor=none;" vertex="1" connectable="0" parent="xLPrdjITHXCchPHpCiGO-21">
          <mxGeometry x="0.2626" y="-1" relative="1" as="geometry">
            <mxPoint x="11" y="-9" as="offset" />
          </mxGeometry>
        </mxCell>
        <mxCell id="xLPrdjITHXCchPHpCiGO-23" style="edgeStyle=orthogonalEdgeStyle;rounded=0;orthogonalLoop=1;jettySize=auto;html=1;entryX=0.5;entryY=0;entryDx=0;entryDy=0;shadow=0;strokeColor=default;strokeWidth=1;align=center;verticalAlign=middle;fontFamily=Helvetica;fontSize=11;fontColor=default;labelBackgroundColor=none;endArrow=block;endFill=0;endSize=8;" edge="1" parent="zWkxw4Bb1DJtnc9ucGg8-1" source="xLPrdjITHXCchPHpCiGO-25" target="xLPrdjITHXCchPHpCiGO-33">
          <mxGeometry relative="1" as="geometry" />
        </mxCell>
        <mxCell id="xLPrdjITHXCchPHpCiGO-24" value="Ano" style="edgeLabel;html=1;align=center;verticalAlign=middle;resizable=0;points=[];fontFamily=Helvetica;fontSize=11;fontColor=default;labelBackgroundColor=none;" vertex="1" connectable="0" parent="xLPrdjITHXCchPHpCiGO-23">
          <mxGeometry x="0.3278" y="-1" relative="1" as="geometry">
            <mxPoint x="21" y="-3" as="offset" />
          </mxGeometry>
        </mxCell>
        <mxCell id="xLPrdjITHXCchPHpCiGO-25" value="Jsou nová&amp;nbsp;&lt;div&gt;&lt;span style=&quot;background-color: initial;&quot;&gt;data&amp;nbsp;&lt;/span&gt;&lt;span style=&quot;background-color: initial;&quot;&gt;k&lt;/span&gt;&lt;/div&gt;&lt;div&gt;&lt;span style=&quot;background-color: initial;&quot;&gt;dispozici?&lt;/span&gt;&lt;/div&gt;" style="rhombus;whiteSpace=wrap;html=1;shadow=0;fontFamily=Helvetica;fontSize=12;align=center;strokeWidth=1;spacing=6;spacingTop=-4;" vertex="1" parent="zWkxw4Bb1DJtnc9ucGg8-1">
          <mxGeometry x="477" y="170" width="106" height="80" as="geometry" />
        </mxCell>
        <mxCell id="xLPrdjITHXCchPHpCiGO-26" style="edgeStyle=orthogonalEdgeStyle;rounded=0;orthogonalLoop=1;jettySize=auto;html=1;shadow=0;strokeColor=#666666;strokeWidth=1;align=center;verticalAlign=middle;fontFamily=Helvetica;fontSize=11;fontColor=default;labelBackgroundColor=none;endArrow=block;endFill=0;shape=flexArrow;entryX=0.5;entryY=0;entryDx=0;entryDy=0;exitX=0.5;exitY=1;exitDx=0;exitDy=0;fillColor=#f5f5f5;" edge="1" parent="zWkxw4Bb1DJtnc9ucGg8-1" source="xLPrdjITHXCchPHpCiGO-29" target="xLPrdjITHXCchPHpCiGO-30">
          <mxGeometry relative="1" as="geometry">
            <mxPoint x="280" y="400" as="targetPoint" />
            <Array as="points">
              <mxPoint x="140" y="470" />
              <mxPoint x="310" y="470" />
            </Array>
          </mxGeometry>
        </mxCell>
        <mxCell id="xLPrdjITHXCchPHpCiGO-27" value="loggerQueue" style="edgeLabel;html=1;align=center;verticalAlign=middle;resizable=0;points=[];fontFamily=Helvetica;fontSize=11;fontColor=default;labelBackgroundColor=none;" vertex="1" connectable="0" parent="xLPrdjITHXCchPHpCiGO-26">
          <mxGeometry x="-0.0914" y="-1" relative="1" as="geometry">
            <mxPoint x="55" y="-21" as="offset" />
          </mxGeometry>
        </mxCell>
        <mxCell id="xLPrdjITHXCchPHpCiGO-28" style="edgeStyle=orthogonalEdgeStyle;rounded=0;orthogonalLoop=1;jettySize=auto;html=1;shadow=0;strokeColor=default;strokeWidth=1;align=center;verticalAlign=middle;fontFamily=Helvetica;fontSize=11;fontColor=default;labelBackgroundColor=none;endArrow=block;endFill=0;endSize=8;exitX=1;exitY=0.5;exitDx=0;exitDy=0;" edge="1" parent="zWkxw4Bb1DJtnc9ucGg8-1" source="xLPrdjITHXCchPHpCiGO-29">
          <mxGeometry relative="1" as="geometry">
            <Array as="points">
              <mxPoint x="230" y="430" />
              <mxPoint x="230" y="150" />
              <mxPoint x="530" y="150" />
            </Array>
            <mxPoint x="140" y="449.97" as="sourcePoint" />
            <mxPoint x="530" y="170" as="targetPoint" />
          </mxGeometry>
        </mxCell>
        <mxCell id="xLPrdjITHXCchPHpCiGO-29" value="zápis dataloggeru" style="rounded=1;whiteSpace=wrap;html=1;fontSize=12;glass=0;strokeWidth=1;shadow=0;" vertex="1" parent="zWkxw4Bb1DJtnc9ucGg8-1">
          <mxGeometry x="80" y="420" width="120" height="20" as="geometry" />
        </mxCell>
        <mxCell id="xLPrdjITHXCchPHpCiGO-30" value="loggerTask" style="rounded=1;whiteSpace=wrap;html=1;fontSize=12;glass=0;strokeWidth=1;shadow=0;fillColor=#fff2cc;strokeColor=#d6b656;" vertex="1" parent="zWkxw4Bb1DJtnc9ucGg8-1">
          <mxGeometry x="250" y="515" width="120" height="24" as="geometry" />
        </mxCell>
        <mxCell id="xLPrdjITHXCchPHpCiGO-31" style="edgeStyle=orthogonalEdgeStyle;rounded=0;orthogonalLoop=1;jettySize=auto;html=1;entryX=0.5;entryY=0;entryDx=0;entryDy=0;shadow=0;strokeColor=#666666;strokeWidth=1;align=center;verticalAlign=middle;fontFamily=Helvetica;fontSize=11;fontColor=default;labelBackgroundColor=none;endArrow=block;endFill=0;shape=flexArrow;fillColor=#f5f5f5;" edge="1" parent="zWkxw4Bb1DJtnc9ucGg8-1" source="xLPrdjITHXCchPHpCiGO-33" target="xLPrdjITHXCchPHpCiGO-30">
          <mxGeometry relative="1" as="geometry">
            <Array as="points">
              <mxPoint x="310" y="290" />
              <mxPoint x="310" y="475" />
            </Array>
          </mxGeometry>
        </mxCell>
        <mxCell id="xLPrdjITHXCchPHpCiGO-32" style="edgeStyle=orthogonalEdgeStyle;rounded=0;orthogonalLoop=1;jettySize=auto;html=1;entryX=0.5;entryY=0;entryDx=0;entryDy=0;shadow=0;strokeColor=default;strokeWidth=1;align=center;verticalAlign=middle;fontFamily=Helvetica;fontSize=11;fontColor=default;labelBackgroundColor=none;endArrow=block;endFill=0;endSize=8;" edge="1" parent="zWkxw4Bb1DJtnc9ucGg8-1" source="xLPrdjITHXCchPHpCiGO-33" target="xLPrdjITHXCchPHpCiGO-42">
          <mxGeometry relative="1" as="geometry">
            <Array as="points">
              <mxPoint x="530" y="300" />
              <mxPoint x="530" y="300" />
            </Array>
          </mxGeometry>
        </mxCell>
        <mxCell id="xLPrdjITHXCchPHpCiGO-33" value="zápis dataloggeru" style="rounded=1;whiteSpace=wrap;html=1;fontSize=12;glass=0;strokeWidth=1;shadow=0;" vertex="1" parent="zWkxw4Bb1DJtnc9ucGg8-1">
          <mxGeometry x="470" y="280" width="120" height="20" as="geometry" />
        </mxCell>
        <mxCell id="xLPrdjITHXCchPHpCiGO-34" style="edgeStyle=orthogonalEdgeStyle;rounded=0;orthogonalLoop=1;jettySize=auto;html=1;shadow=0;strokeColor=#666666;strokeWidth=1;align=center;verticalAlign=middle;fontFamily=Helvetica;fontSize=11;fontColor=default;labelBackgroundColor=none;endArrow=block;endFill=0;shape=flexArrow;exitX=0;exitY=0.5;exitDx=0;exitDy=0;entryX=0.5;entryY=0;entryDx=0;entryDy=0;fillColor=#f5f5f5;" edge="1" parent="zWkxw4Bb1DJtnc9ucGg8-1" source="xLPrdjITHXCchPHpCiGO-36" target="xLPrdjITHXCchPHpCiGO-30">
          <mxGeometry relative="1" as="geometry">
            <mxPoint x="320" y="222.5" as="sourcePoint" />
            <mxPoint x="310" y="477.5" as="targetPoint" />
            <Array as="points">
              <mxPoint x="310" y="210" />
            </Array>
          </mxGeometry>
        </mxCell>
        <mxCell id="xLPrdjITHXCchPHpCiGO-35" style="edgeStyle=orthogonalEdgeStyle;rounded=0;orthogonalLoop=1;jettySize=auto;html=1;shadow=0;strokeColor=default;strokeWidth=1;align=center;verticalAlign=middle;fontFamily=Helvetica;fontSize=11;fontColor=default;labelBackgroundColor=none;endArrow=block;endFill=0;endSize=8;entryX=0.5;entryY=0;entryDx=0;entryDy=0;" edge="1" parent="zWkxw4Bb1DJtnc9ucGg8-1" source="xLPrdjITHXCchPHpCiGO-36" target="xLPrdjITHXCchPHpCiGO-42">
          <mxGeometry relative="1" as="geometry">
            <mxPoint x="480" y="340" as="targetPoint" />
            <Array as="points">
              <mxPoint x="380" y="330" />
              <mxPoint x="530" y="330" />
            </Array>
          </mxGeometry>
        </mxCell>
        <mxCell id="xLPrdjITHXCchPHpCiGO-36" value="zápis nul" style="rounded=1;whiteSpace=wrap;html=1;fontSize=12;glass=0;strokeWidth=1;shadow=0;" vertex="1" parent="zWkxw4Bb1DJtnc9ucGg8-1">
          <mxGeometry x="320" y="200" width="120" height="20" as="geometry" />
        </mxCell>
        <mxCell id="xLPrdjITHXCchPHpCiGO-37" value="lsmTask" style="rounded=1;whiteSpace=wrap;html=1;fontSize=12;glass=0;strokeWidth=1;shadow=0;fillColor=#fff2cc;strokeColor=#d6b656;" vertex="1" parent="zWkxw4Bb1DJtnc9ucGg8-1">
          <mxGeometry x="663" y="370" width="120" height="40" as="geometry" />
        </mxCell>
        <mxCell id="xLPrdjITHXCchPHpCiGO-38" style="edgeStyle=orthogonalEdgeStyle;rounded=0;orthogonalLoop=1;jettySize=auto;html=1;entryX=1;entryY=0.5;entryDx=0;entryDy=0;shadow=0;strokeColor=default;strokeWidth=1;align=center;verticalAlign=middle;fontFamily=Helvetica;fontSize=11;fontColor=default;labelBackgroundColor=none;endArrow=block;endFill=0;endSize=8;" edge="1" parent="zWkxw4Bb1DJtnc9ucGg8-1" source="xLPrdjITHXCchPHpCiGO-42" target="xLPrdjITHXCchPHpCiGO-48">
          <mxGeometry relative="1" as="geometry" />
        </mxCell>
        <mxCell id="xLPrdjITHXCchPHpCiGO-39" value="Ne" style="edgeLabel;html=1;align=center;verticalAlign=middle;resizable=0;points=[];fontFamily=Helvetica;fontSize=11;fontColor=default;labelBackgroundColor=none;" vertex="1" connectable="0" parent="xLPrdjITHXCchPHpCiGO-38">
          <mxGeometry x="0.2626" y="-1" relative="1" as="geometry">
            <mxPoint x="11" y="-9" as="offset" />
          </mxGeometry>
        </mxCell>
        <mxCell id="xLPrdjITHXCchPHpCiGO-40" style="edgeStyle=orthogonalEdgeStyle;rounded=0;orthogonalLoop=1;jettySize=auto;html=1;entryX=0.5;entryY=0;entryDx=0;entryDy=0;shadow=0;strokeColor=default;strokeWidth=1;align=center;verticalAlign=middle;fontFamily=Helvetica;fontSize=11;fontColor=default;labelBackgroundColor=none;endArrow=block;endFill=0;endSize=8;" edge="1" parent="zWkxw4Bb1DJtnc9ucGg8-1" source="xLPrdjITHXCchPHpCiGO-42" target="xLPrdjITHXCchPHpCiGO-45">
          <mxGeometry relative="1" as="geometry" />
        </mxCell>
        <mxCell id="xLPrdjITHXCchPHpCiGO-41" value="Ano" style="edgeLabel;html=1;align=center;verticalAlign=middle;resizable=0;points=[];fontFamily=Helvetica;fontSize=11;fontColor=default;labelBackgroundColor=none;" vertex="1" connectable="0" parent="xLPrdjITHXCchPHpCiGO-40">
          <mxGeometry x="0.3278" y="-1" relative="1" as="geometry">
            <mxPoint x="21" y="-3" as="offset" />
          </mxGeometry>
        </mxCell>
        <mxCell id="xLPrdjITHXCchPHpCiGO-42" value="Jsou nová&amp;nbsp;&lt;div&gt;&lt;span style=&quot;background-color: initial;&quot;&gt;data&amp;nbsp;&lt;/span&gt;&lt;span style=&quot;background-color: initial;&quot;&gt;k&lt;/span&gt;&lt;/div&gt;&lt;div&gt;&lt;span style=&quot;background-color: initial;&quot;&gt;dispozici?&lt;/span&gt;&lt;/div&gt;" style="rhombus;whiteSpace=wrap;html=1;shadow=0;fontFamily=Helvetica;fontSize=12;align=center;strokeWidth=1;spacing=6;spacingTop=-4;" vertex="1" parent="zWkxw4Bb1DJtnc9ucGg8-1">
          <mxGeometry x="477" y="350" width="106" height="80" as="geometry" />
        </mxCell>
        <mxCell id="xLPrdjITHXCchPHpCiGO-43" style="edgeStyle=orthogonalEdgeStyle;rounded=0;orthogonalLoop=1;jettySize=auto;html=1;entryX=0.5;entryY=0;entryDx=0;entryDy=0;shadow=0;strokeColor=#666666;strokeWidth=1;align=center;verticalAlign=middle;fontFamily=Helvetica;fontSize=11;fontColor=default;labelBackgroundColor=none;endArrow=block;endFill=0;shape=flexArrow;fillColor=#f5f5f5;" edge="1" parent="zWkxw4Bb1DJtnc9ucGg8-1" source="xLPrdjITHXCchPHpCiGO-45" target="xLPrdjITHXCchPHpCiGO-30">
          <mxGeometry relative="1" as="geometry" />
        </mxCell>
        <mxCell id="xLPrdjITHXCchPHpCiGO-44" style="edgeStyle=orthogonalEdgeStyle;rounded=0;orthogonalLoop=1;jettySize=auto;html=1;entryX=0;entryY=0.5;entryDx=0;entryDy=0;shadow=0;strokeColor=default;strokeWidth=1;align=center;verticalAlign=middle;fontFamily=Helvetica;fontSize=11;fontColor=default;labelBackgroundColor=none;endArrow=block;endFill=0;endSize=8;" edge="1" parent="zWkxw4Bb1DJtnc9ucGg8-1" source="xLPrdjITHXCchPHpCiGO-45" target="xLPrdjITHXCchPHpCiGO-7">
          <mxGeometry relative="1" as="geometry">
            <Array as="points">
              <mxPoint x="530" y="570" />
              <mxPoint x="60" y="570" />
              <mxPoint x="60" y="210" />
            </Array>
          </mxGeometry>
        </mxCell>
        <mxCell id="xLPrdjITHXCchPHpCiGO-45" value="zápis dataloggeru" style="rounded=1;whiteSpace=wrap;html=1;fontSize=12;glass=0;strokeWidth=1;shadow=0;" vertex="1" parent="zWkxw4Bb1DJtnc9ucGg8-1">
          <mxGeometry x="470" y="460" width="120" height="20" as="geometry" />
        </mxCell>
        <mxCell id="xLPrdjITHXCchPHpCiGO-46" style="edgeStyle=orthogonalEdgeStyle;rounded=0;orthogonalLoop=1;jettySize=auto;html=1;shadow=0;strokeColor=#666666;strokeWidth=1;align=center;verticalAlign=middle;fontFamily=Helvetica;fontSize=11;fontColor=default;labelBackgroundColor=none;endArrow=block;endFill=0;shape=flexArrow;entryX=0.5;entryY=0;entryDx=0;entryDy=0;fillColor=#f5f5f5;" edge="1" parent="zWkxw4Bb1DJtnc9ucGg8-1" source="xLPrdjITHXCchPHpCiGO-48" target="xLPrdjITHXCchPHpCiGO-30">
          <mxGeometry relative="1" as="geometry">
            <Array as="points">
              <mxPoint x="310" y="390" />
            </Array>
          </mxGeometry>
        </mxCell>
        <mxCell id="xLPrdjITHXCchPHpCiGO-47" style="edgeStyle=orthogonalEdgeStyle;rounded=0;orthogonalLoop=1;jettySize=auto;html=1;shadow=0;strokeColor=default;strokeWidth=1;align=center;verticalAlign=middle;fontFamily=Helvetica;fontSize=11;fontColor=default;labelBackgroundColor=none;endArrow=block;endFill=0;endSize=8;" edge="1" parent="zWkxw4Bb1DJtnc9ucGg8-1" source="xLPrdjITHXCchPHpCiGO-48">
          <mxGeometry relative="1" as="geometry">
            <mxPoint x="80" y="210" as="targetPoint" />
            <Array as="points">
              <mxPoint x="380" y="570" />
              <mxPoint x="60" y="570" />
              <mxPoint x="60" y="210" />
            </Array>
          </mxGeometry>
        </mxCell>
        <mxCell id="xLPrdjITHXCchPHpCiGO-48" value="zápis nul" style="rounded=1;whiteSpace=wrap;html=1;fontSize=12;glass=0;strokeWidth=1;shadow=0;" vertex="1" parent="zWkxw4Bb1DJtnc9ucGg8-1">
          <mxGeometry x="320" y="380" width="120" height="20" as="geometry" />
        </mxCell>
        <mxCell id="xLPrdjITHXCchPHpCiGO-49" style="edgeStyle=orthogonalEdgeStyle;rounded=0;orthogonalLoop=1;jettySize=auto;html=1;shadow=0;strokeColor=default;strokeWidth=1;align=center;verticalAlign=middle;fontFamily=Helvetica;fontSize=11;fontColor=default;labelBackgroundColor=none;endArrow=block;endFill=0;shape=flexArrow;exitX=0;exitY=0.5;exitDx=0;exitDy=0;entryX=1;entryY=0.5;entryDx=0;entryDy=0;" edge="1" parent="zWkxw4Bb1DJtnc9ucGg8-1">
          <mxGeometry relative="1" as="geometry">
            <mxPoint x="583" y="389.71000000000004" as="targetPoint" />
            <mxPoint x="663" y="389.71000000000004" as="sourcePoint" />
          </mxGeometry>
        </mxCell>
        <mxCell id="xLPrdjITHXCchPHpCiGO-50" value="lsmQueue" style="edgeLabel;html=1;align=center;verticalAlign=middle;resizable=0;points=[];fontFamily=Helvetica;fontSize=11;fontColor=default;labelBackgroundColor=none;" vertex="1" connectable="0" parent="xLPrdjITHXCchPHpCiGO-49">
          <mxGeometry x="-0.2453" relative="1" as="geometry">
            <mxPoint y="-15" as="offset" />
          </mxGeometry>
        </mxCell>
        <mxCell id="feuxvWQ1jK1lZkfuCtgQ-3" value="" style="edgeStyle=orthogonalEdgeStyle;rounded=0;orthogonalLoop=1;jettySize=auto;html=1;entryX=1;entryY=0.5;entryDx=0;entryDy=0;" edge="1" parent="zWkxw4Bb1DJtnc9ucGg8-1" source="feuxvWQ1jK1lZkfuCtgQ-1" target="feuxvWQ1jK1lZkfuCtgQ-4">
          <mxGeometry relative="1" as="geometry">
            <mxPoint x="20" y="360" as="targetPoint" />
            <Array as="points">
              <mxPoint x="70" y="360" />
              <mxPoint x="70" y="360" />
            </Array>
          </mxGeometry>
        </mxCell>
        <mxCell id="feuxvWQ1jK1lZkfuCtgQ-5" value="Ano" style="edgeLabel;html=1;align=center;verticalAlign=middle;resizable=0;points=[];" vertex="1" connectable="0" parent="feuxvWQ1jK1lZkfuCtgQ-3">
          <mxGeometry x="-0.5803" relative="1" as="geometry">
            <mxPoint as="offset" />
          </mxGeometry>
        </mxCell>
        <mxCell id="feuxvWQ1jK1lZkfuCtgQ-6" style="edgeStyle=orthogonalEdgeStyle;rounded=0;orthogonalLoop=1;jettySize=auto;html=1;exitX=0.5;exitY=1;exitDx=0;exitDy=0;entryX=0.5;entryY=0;entryDx=0;entryDy=0;" edge="1" parent="zWkxw4Bb1DJtnc9ucGg8-1" source="feuxvWQ1jK1lZkfuCtgQ-1" target="xLPrdjITHXCchPHpCiGO-29">
          <mxGeometry relative="1" as="geometry">
            <Array as="points">
              <mxPoint x="140" y="410" />
              <mxPoint x="140" y="410" />
            </Array>
          </mxGeometry>
        </mxCell>
        <mxCell id="feuxvWQ1jK1lZkfuCtgQ-8" value="Ne" style="edgeLabel;html=1;align=center;verticalAlign=middle;resizable=0;points=[];" vertex="1" connectable="0" parent="feuxvWQ1jK1lZkfuCtgQ-6">
          <mxGeometry x="-0.2212" y="2" relative="1" as="geometry">
            <mxPoint as="offset" />
          </mxGeometry>
        </mxCell>
        <mxCell id="feuxvWQ1jK1lZkfuCtgQ-1" value="Je detekován&lt;br&gt;volný pád" style="rhombus;whiteSpace=wrap;html=1;shadow=0;fontFamily=Helvetica;fontSize=12;align=center;strokeWidth=1;spacing=6;spacingTop=-4;" vertex="1" parent="zWkxw4Bb1DJtnc9ucGg8-1">
          <mxGeometry x="87" y="320" width="106" height="80" as="geometry" />
        </mxCell>
        <mxCell id="feuxvWQ1jK1lZkfuCtgQ-7" style="edgeStyle=orthogonalEdgeStyle;rounded=0;orthogonalLoop=1;jettySize=auto;html=1;entryX=0;entryY=0.5;entryDx=0;entryDy=0;" edge="1" parent="zWkxw4Bb1DJtnc9ucGg8-1" source="feuxvWQ1jK1lZkfuCtgQ-4" target="xLPrdjITHXCchPHpCiGO-29">
          <mxGeometry relative="1" as="geometry">
            <Array as="points">
              <mxPoint x="-40" y="430" />
            </Array>
          </mxGeometry>
        </mxCell>
        <mxCell id="feuxvWQ1jK1lZkfuCtgQ-4" value="Otevření padáku" style="rounded=1;whiteSpace=wrap;html=1;fontSize=12;glass=0;strokeWidth=1;shadow=0;fontFamily=Helvetica;" vertex="1" parent="zWkxw4Bb1DJtnc9ucGg8-1">
          <mxGeometry x="-100" y="350" width="120" height="20" as="geometry" />
        </mxCell>
      </root>
    </mxGraphModel>
  </diagram>
  <diagram name="LoggerTask" id="v9lxq5IgSHWBd1bu4ZkW">
    <mxGraphModel dx="1723" dy="1002" grid="1" gridSize="10" guides="1" tooltips="1" connect="1" arrows="1" fold="1" page="1" pageScale="1" pageWidth="827" pageHeight="1169" math="0" shadow="0">
      <root>
        <mxCell id="xSdYfynR4ia9vhpmrmCT-0" />
        <mxCell id="xSdYfynR4ia9vhpmrmCT-1" parent="xSdYfynR4ia9vhpmrmCT-0" />
        <mxCell id="xSdYfynR4ia9vhpmrmCT-3" value="StartLoggerTask" style="rounded=1;whiteSpace=wrap;html=1;fontSize=12;glass=0;strokeWidth=1;shadow=0;fillColor=#fff2cc;strokeColor=#d6b656;" parent="xSdYfynR4ia9vhpmrmCT-1" vertex="1">
          <mxGeometry x="340" y="160" width="120" height="40" as="geometry" />
        </mxCell>
        <mxCell id="iRuuLfqIQH7o_dLssUCQ-1" style="edgeStyle=orthogonalEdgeStyle;rounded=0;orthogonalLoop=1;jettySize=auto;html=1;entryX=0.5;entryY=0;entryDx=0;entryDy=0;shadow=0;strokeColor=default;strokeWidth=1;align=center;verticalAlign=middle;fontFamily=Helvetica;fontSize=11;fontColor=default;labelBackgroundColor=none;endArrow=block;endFill=0;endSize=8;exitX=0.5;exitY=1;exitDx=0;exitDy=0;" parent="xSdYfynR4ia9vhpmrmCT-1" source="xSdYfynR4ia9vhpmrmCT-3" target="iRuuLfqIQH7o_dLssUCQ-0" edge="1">
          <mxGeometry relative="1" as="geometry">
            <Array as="points" />
            <mxPoint x="400" y="240" as="sourcePoint" />
          </mxGeometry>
        </mxCell>
        <mxCell id="iRuuLfqIQH7o_dLssUCQ-2" style="edgeStyle=orthogonalEdgeStyle;rounded=0;orthogonalLoop=1;jettySize=auto;html=1;shadow=0;strokeColor=default;strokeWidth=1;align=center;verticalAlign=middle;fontFamily=Helvetica;fontSize=11;fontColor=default;labelBackgroundColor=none;endArrow=block;endFill=0;endSize=8;entryX=0.5;entryY=0;entryDx=0;entryDy=0;" parent="xSdYfynR4ia9vhpmrmCT-1" source="iRuuLfqIQH7o_dLssUCQ-0" target="iRuuLfqIQH7o_dLssUCQ-5" edge="1">
          <mxGeometry relative="1" as="geometry">
            <mxPoint x="110" y="340" as="targetPoint" />
            <Array as="points">
              <mxPoint x="110" y="270" />
            </Array>
          </mxGeometry>
        </mxCell>
        <mxCell id="iRuuLfqIQH7o_dLssUCQ-3" value="loggerState = ON &amp;amp; prevLoggerState = OFF" style="edgeLabel;html=1;align=center;verticalAlign=middle;resizable=0;points=[];fontFamily=Helvetica;fontSize=11;fontColor=default;labelBackgroundColor=none;" parent="iRuuLfqIQH7o_dLssUCQ-2" vertex="1" connectable="0">
          <mxGeometry x="0.0474" y="1" relative="1" as="geometry">
            <mxPoint x="32" y="-11" as="offset" />
          </mxGeometry>
        </mxCell>
        <mxCell id="3HeUN2rytNxu4MZSigGt-1" style="edgeStyle=orthogonalEdgeStyle;rounded=0;orthogonalLoop=1;jettySize=auto;html=1;entryX=0.5;entryY=0;entryDx=0;entryDy=0;shadow=0;strokeColor=default;strokeWidth=1;align=center;verticalAlign=middle;fontFamily=Helvetica;fontSize=11;fontColor=default;labelBackgroundColor=none;endArrow=block;endFill=0;endSize=8;" parent="xSdYfynR4ia9vhpmrmCT-1" source="iRuuLfqIQH7o_dLssUCQ-0" target="iRuuLfqIQH7o_dLssUCQ-15" edge="1">
          <mxGeometry relative="1" as="geometry" />
        </mxCell>
        <mxCell id="3HeUN2rytNxu4MZSigGt-2" value="loggerState = OFF &amp;amp; prevLoggerState = ON" style="edgeLabel;html=1;align=center;verticalAlign=middle;resizable=0;points=[];fontFamily=Helvetica;fontSize=11;fontColor=default;labelBackgroundColor=none;" parent="3HeUN2rytNxu4MZSigGt-1" vertex="1" connectable="0">
          <mxGeometry x="0.0634" relative="1" as="geometry">
            <mxPoint x="-36" y="-10" as="offset" />
          </mxGeometry>
        </mxCell>
        <mxCell id="N3txIBw7Ly7NA7ZUwWmj-2" style="edgeStyle=orthogonalEdgeStyle;rounded=0;orthogonalLoop=1;jettySize=auto;html=1;entryX=0.5;entryY=0;entryDx=0;entryDy=0;shadow=0;strokeColor=default;strokeWidth=1;align=center;verticalAlign=middle;fontFamily=Helvetica;fontSize=11;fontColor=default;labelBackgroundColor=none;endArrow=block;endFill=0;endSize=8;" parent="xSdYfynR4ia9vhpmrmCT-1" source="iRuuLfqIQH7o_dLssUCQ-0" target="N3txIBw7Ly7NA7ZUwWmj-1" edge="1">
          <mxGeometry relative="1" as="geometry" />
        </mxCell>
        <mxCell id="N3txIBw7Ly7NA7ZUwWmj-3" value="loggerState = OFF &amp;amp; prevLoggerState = OFF" style="edgeLabel;html=1;align=center;verticalAlign=middle;resizable=0;points=[];fontFamily=Helvetica;fontSize=11;fontColor=default;labelBackgroundColor=none;" parent="N3txIBw7Ly7NA7ZUwWmj-2" vertex="1" connectable="0">
          <mxGeometry x="-0.279" y="1" relative="1" as="geometry">
            <mxPoint x="56" y="-9" as="offset" />
          </mxGeometry>
        </mxCell>
        <mxCell id="N3txIBw7Ly7NA7ZUwWmj-6" style="edgeStyle=orthogonalEdgeStyle;rounded=0;orthogonalLoop=1;jettySize=auto;html=1;entryX=0.5;entryY=0;entryDx=0;entryDy=0;shadow=0;strokeColor=default;strokeWidth=1;align=center;verticalAlign=middle;fontFamily=Helvetica;fontSize=11;fontColor=default;labelBackgroundColor=none;endArrow=block;endFill=0;endSize=8;" parent="xSdYfynR4ia9vhpmrmCT-1" source="iRuuLfqIQH7o_dLssUCQ-0" target="N3txIBw7Ly7NA7ZUwWmj-4" edge="1">
          <mxGeometry relative="1" as="geometry">
            <Array as="points">
              <mxPoint x="690" y="270" />
            </Array>
          </mxGeometry>
        </mxCell>
        <mxCell id="N3txIBw7Ly7NA7ZUwWmj-7" value="loggerState = ON &amp;amp; prevLoggerState = ON" style="edgeLabel;html=1;align=center;verticalAlign=middle;resizable=0;points=[];fontFamily=Helvetica;fontSize=11;fontColor=default;labelBackgroundColor=none;" parent="N3txIBw7Ly7NA7ZUwWmj-6" vertex="1" connectable="0">
          <mxGeometry x="-0.5509" y="-1" relative="1" as="geometry">
            <mxPoint x="65" y="-11" as="offset" />
          </mxGeometry>
        </mxCell>
        <mxCell id="iRuuLfqIQH7o_dLssUCQ-0" value="loggerState &amp;amp;&lt;div&gt;prevLoggerState&lt;/div&gt;" style="rhombus;whiteSpace=wrap;html=1;shadow=0;fontFamily=Helvetica;fontSize=12;align=center;strokeWidth=1;spacing=6;spacingTop=-4;" parent="xSdYfynR4ia9vhpmrmCT-1" vertex="1">
          <mxGeometry x="328.5" y="260" width="143" height="80" as="geometry" />
        </mxCell>
        <mxCell id="iRuuLfqIQH7o_dLssUCQ-8" style="edgeStyle=orthogonalEdgeStyle;rounded=0;orthogonalLoop=1;jettySize=auto;html=1;entryX=0.5;entryY=0;entryDx=0;entryDy=0;shadow=0;strokeColor=default;strokeWidth=1;align=center;verticalAlign=middle;fontFamily=Helvetica;fontSize=11;fontColor=default;labelBackgroundColor=none;endArrow=block;endFill=0;endSize=8;" parent="xSdYfynR4ia9vhpmrmCT-1" source="iRuuLfqIQH7o_dLssUCQ-5" target="iRuuLfqIQH7o_dLssUCQ-7" edge="1">
          <mxGeometry relative="1" as="geometry">
            <Array as="points">
              <mxPoint x="110" y="420" />
              <mxPoint x="110" y="420" />
            </Array>
          </mxGeometry>
        </mxCell>
        <mxCell id="iRuuLfqIQH7o_dLssUCQ-5" value="Zavedení FS na SD kartě" style="rounded=1;whiteSpace=wrap;html=1;fontSize=12;glass=0;strokeWidth=1;shadow=0;fontFamily=Helvetica;" parent="xSdYfynR4ia9vhpmrmCT-1" vertex="1">
          <mxGeometry x="50" y="380" width="120" height="30" as="geometry" />
        </mxCell>
        <mxCell id="N3txIBw7Ly7NA7ZUwWmj-16" style="edgeStyle=orthogonalEdgeStyle;rounded=0;orthogonalLoop=1;jettySize=auto;html=1;entryX=0;entryY=0.5;entryDx=0;entryDy=0;shadow=0;strokeColor=default;strokeWidth=1;align=center;verticalAlign=middle;fontFamily=Helvetica;fontSize=11;fontColor=default;labelBackgroundColor=none;endArrow=block;endFill=0;endSize=8;" parent="xSdYfynR4ia9vhpmrmCT-1" source="iRuuLfqIQH7o_dLssUCQ-7" target="iRuuLfqIQH7o_dLssUCQ-9" edge="1">
          <mxGeometry relative="1" as="geometry">
            <Array as="points">
              <mxPoint x="110" y="495" />
            </Array>
          </mxGeometry>
        </mxCell>
        <mxCell id="iRuuLfqIQH7o_dLssUCQ-7" value="Vytvoření souboru &quot;imuData.bin&quot;" style="rounded=1;whiteSpace=wrap;html=1;fontSize=12;glass=0;strokeWidth=1;shadow=0;fontFamily=Helvetica;" parent="xSdYfynR4ia9vhpmrmCT-1" vertex="1">
          <mxGeometry x="50" y="430" width="120" height="30" as="geometry" />
        </mxCell>
        <mxCell id="N3txIBw7Ly7NA7ZUwWmj-17" style="edgeStyle=orthogonalEdgeStyle;rounded=0;orthogonalLoop=1;jettySize=auto;html=1;entryX=0.5;entryY=1;entryDx=0;entryDy=0;shadow=0;strokeColor=default;strokeWidth=1;align=center;verticalAlign=middle;fontFamily=Helvetica;fontSize=11;fontColor=default;labelBackgroundColor=none;endArrow=block;endFill=0;endSize=8;" parent="xSdYfynR4ia9vhpmrmCT-1" source="iRuuLfqIQH7o_dLssUCQ-9" target="iRuuLfqIQH7o_dLssUCQ-0" edge="1">
          <mxGeometry relative="1" as="geometry" />
        </mxCell>
        <mxCell id="iRuuLfqIQH7o_dLssUCQ-9" value="prevLoggerState = loggerState" style="rounded=1;whiteSpace=wrap;html=1;fontSize=12;glass=0;strokeWidth=1;shadow=0;fontFamily=Helvetica;" parent="xSdYfynR4ia9vhpmrmCT-1" vertex="1">
          <mxGeometry x="340" y="480" width="120" height="30" as="geometry" />
        </mxCell>
        <mxCell id="3HeUN2rytNxu4MZSigGt-3" style="edgeStyle=orthogonalEdgeStyle;rounded=0;orthogonalLoop=1;jettySize=auto;html=1;entryX=0.5;entryY=0;entryDx=0;entryDy=0;shadow=0;strokeColor=default;strokeWidth=1;align=center;verticalAlign=middle;fontFamily=Helvetica;fontSize=11;fontColor=default;labelBackgroundColor=none;endArrow=block;endFill=0;endSize=8;" parent="xSdYfynR4ia9vhpmrmCT-1" source="iRuuLfqIQH7o_dLssUCQ-15" target="iRuuLfqIQH7o_dLssUCQ-16" edge="1">
          <mxGeometry relative="1" as="geometry">
            <Array as="points">
              <mxPoint x="250" y="380" />
              <mxPoint x="250" y="380" />
            </Array>
          </mxGeometry>
        </mxCell>
        <mxCell id="iRuuLfqIQH7o_dLssUCQ-15" value="Zavření souboru &quot;imuData.bin&quot;" style="rounded=1;whiteSpace=wrap;html=1;fontSize=12;glass=0;strokeWidth=1;shadow=0;fontFamily=Helvetica;" parent="xSdYfynR4ia9vhpmrmCT-1" vertex="1">
          <mxGeometry x="190" y="340" width="120" height="30" as="geometry" />
        </mxCell>
        <mxCell id="iRuuLfqIQH7o_dLssUCQ-16" value="Odpojení FS SD karty" style="rounded=1;whiteSpace=wrap;html=1;fontSize=12;glass=0;strokeWidth=1;shadow=0;fontFamily=Helvetica;" parent="xSdYfynR4ia9vhpmrmCT-1" vertex="1">
          <mxGeometry x="190" y="390" width="120" height="30" as="geometry" />
        </mxCell>
        <mxCell id="N3txIBw7Ly7NA7ZUwWmj-15" style="edgeStyle=orthogonalEdgeStyle;rounded=0;orthogonalLoop=1;jettySize=auto;html=1;entryX=0;entryY=0.5;entryDx=0;entryDy=0;shadow=0;strokeColor=default;strokeWidth=1;align=center;verticalAlign=middle;fontFamily=Helvetica;fontSize=11;fontColor=default;labelBackgroundColor=none;endArrow=block;endFill=0;endSize=8;exitX=0.5;exitY=1;exitDx=0;exitDy=0;" parent="xSdYfynR4ia9vhpmrmCT-1" source="iRuuLfqIQH7o_dLssUCQ-16" target="iRuuLfqIQH7o_dLssUCQ-9" edge="1">
          <mxGeometry relative="1" as="geometry">
            <Array as="points">
              <mxPoint x="250" y="495" />
            </Array>
            <mxPoint x="250" y="460" as="sourcePoint" />
          </mxGeometry>
        </mxCell>
        <mxCell id="N3txIBw7Ly7NA7ZUwWmj-8" style="edgeStyle=orthogonalEdgeStyle;rounded=0;orthogonalLoop=1;jettySize=auto;html=1;entryX=0.75;entryY=0;entryDx=0;entryDy=0;shadow=0;strokeColor=#666666;strokeWidth=1;align=center;verticalAlign=middle;fontFamily=Helvetica;fontSize=11;fontColor=default;labelBackgroundColor=none;endArrow=block;endFill=0;shape=flexArrow;fillColor=#f5f5f5;" parent="xSdYfynR4ia9vhpmrmCT-1" source="N3txIBw7Ly7NA7ZUwWmj-0" target="N3txIBw7Ly7NA7ZUwWmj-4" edge="1">
          <mxGeometry relative="1" as="geometry">
            <Array as="points">
              <mxPoint x="700" y="220" />
              <mxPoint x="700" y="220" />
            </Array>
          </mxGeometry>
        </mxCell>
        <mxCell id="N3txIBw7Ly7NA7ZUwWmj-10" style="edgeStyle=orthogonalEdgeStyle;rounded=0;orthogonalLoop=1;jettySize=auto;html=1;entryX=0.75;entryY=1;entryDx=0;entryDy=0;shadow=0;strokeColor=#666666;strokeWidth=1;align=center;verticalAlign=middle;fontFamily=Helvetica;fontSize=11;fontColor=default;labelBackgroundColor=none;endArrow=block;endFill=0;shape=flexArrow;fillColor=#f5f5f5;" parent="xSdYfynR4ia9vhpmrmCT-1" source="N3txIBw7Ly7NA7ZUwWmj-0" target="N3txIBw7Ly7NA7ZUwWmj-1" edge="1">
          <mxGeometry relative="1" as="geometry">
            <Array as="points">
              <mxPoint x="780" y="208" />
              <mxPoint x="780" y="380" />
              <mxPoint x="610" y="380" />
              <mxPoint x="610" y="400" />
              <mxPoint x="580" y="400" />
            </Array>
          </mxGeometry>
        </mxCell>
        <mxCell id="N3txIBw7Ly7NA7ZUwWmj-12" value="loggerQueue" style="edgeLabel;html=1;align=center;verticalAlign=middle;resizable=0;points=[];fontFamily=Helvetica;fontSize=11;fontColor=default;labelBackgroundColor=none;" parent="N3txIBw7Ly7NA7ZUwWmj-10" vertex="1" connectable="0">
          <mxGeometry x="-0.8931" y="2" relative="1" as="geometry">
            <mxPoint x="-15" y="54" as="offset" />
          </mxGeometry>
        </mxCell>
        <mxCell id="N3txIBw7Ly7NA7ZUwWmj-0" value="loggerTask" style="rounded=1;whiteSpace=wrap;html=1;fontSize=12;glass=0;strokeWidth=1;shadow=0;fillColor=#fff2cc;strokeColor=#d6b656;" parent="xSdYfynR4ia9vhpmrmCT-1" vertex="1">
          <mxGeometry x="620" y="196" width="120" height="24" as="geometry" />
        </mxCell>
        <mxCell id="N3txIBw7Ly7NA7ZUwWmj-13" style="edgeStyle=orthogonalEdgeStyle;rounded=0;orthogonalLoop=1;jettySize=auto;html=1;entryX=1;entryY=0.5;entryDx=0;entryDy=0;shadow=0;strokeColor=default;strokeWidth=1;align=center;verticalAlign=middle;fontFamily=Helvetica;fontSize=11;fontColor=default;labelBackgroundColor=none;endArrow=block;endFill=0;endSize=8;" parent="xSdYfynR4ia9vhpmrmCT-1" source="N3txIBw7Ly7NA7ZUwWmj-1" target="iRuuLfqIQH7o_dLssUCQ-9" edge="1">
          <mxGeometry relative="1" as="geometry">
            <Array as="points">
              <mxPoint x="540" y="495" />
            </Array>
          </mxGeometry>
        </mxCell>
        <mxCell id="N3txIBw7Ly7NA7ZUwWmj-1" value="Vyčištění loggerQueue" style="rounded=1;whiteSpace=wrap;html=1;fontSize=12;glass=0;strokeWidth=1;shadow=0;fontFamily=Helvetica;" parent="xSdYfynR4ia9vhpmrmCT-1" vertex="1">
          <mxGeometry x="490" y="340" width="120" height="30" as="geometry" />
        </mxCell>
        <mxCell id="N3txIBw7Ly7NA7ZUwWmj-11" style="edgeStyle=orthogonalEdgeStyle;rounded=0;orthogonalLoop=1;jettySize=auto;html=1;entryX=0.5;entryY=0;entryDx=0;entryDy=0;shadow=0;strokeColor=default;strokeWidth=1;align=center;verticalAlign=middle;fontFamily=Helvetica;fontSize=11;fontColor=default;labelBackgroundColor=none;endArrow=block;endFill=0;endSize=8;" parent="xSdYfynR4ia9vhpmrmCT-1" source="N3txIBw7Ly7NA7ZUwWmj-4" target="N3txIBw7Ly7NA7ZUwWmj-5" edge="1">
          <mxGeometry relative="1" as="geometry">
            <Array as="points">
              <mxPoint x="690" y="380" />
              <mxPoint x="690" y="380" />
            </Array>
          </mxGeometry>
        </mxCell>
        <mxCell id="N3txIBw7Ly7NA7ZUwWmj-4" value="Vyčtení loggerQueue" style="rounded=1;whiteSpace=wrap;html=1;fontSize=12;glass=0;strokeWidth=1;shadow=0;fontFamily=Helvetica;" parent="xSdYfynR4ia9vhpmrmCT-1" vertex="1">
          <mxGeometry x="630" y="340" width="120" height="30" as="geometry" />
        </mxCell>
        <mxCell id="N3txIBw7Ly7NA7ZUwWmj-14" style="edgeStyle=orthogonalEdgeStyle;rounded=0;orthogonalLoop=1;jettySize=auto;html=1;entryX=1;entryY=0.5;entryDx=0;entryDy=0;shadow=0;strokeColor=default;strokeWidth=1;align=center;verticalAlign=middle;fontFamily=Helvetica;fontSize=11;fontColor=default;labelBackgroundColor=none;endArrow=block;endFill=0;endSize=8;" parent="xSdYfynR4ia9vhpmrmCT-1" source="N3txIBw7Ly7NA7ZUwWmj-5" target="iRuuLfqIQH7o_dLssUCQ-9" edge="1">
          <mxGeometry relative="1" as="geometry">
            <Array as="points">
              <mxPoint x="690" y="495" />
            </Array>
          </mxGeometry>
        </mxCell>
        <mxCell id="N3txIBw7Ly7NA7ZUwWmj-5" value="Zápis loggerQueue do souboru" style="rounded=1;whiteSpace=wrap;html=1;fontSize=12;glass=0;strokeWidth=1;shadow=0;fontFamily=Helvetica;" parent="xSdYfynR4ia9vhpmrmCT-1" vertex="1">
          <mxGeometry x="630" y="390" width="120" height="30" as="geometry" />
        </mxCell>
      </root>
    </mxGraphModel>
  </diagram>
  <diagram name="OledTask" id="Rky8oIQn7PzZdBgl9bbA">
    <mxGraphModel dx="1430" dy="826" grid="1" gridSize="10" guides="1" tooltips="1" connect="1" arrows="1" fold="1" page="1" pageScale="1" pageWidth="827" pageHeight="1169" math="0" shadow="0">
      <root>
        <mxCell id="J696CwvcAE8XtiYwSVxT-0" />
        <mxCell id="J696CwvcAE8XtiYwSVxT-1" parent="J696CwvcAE8XtiYwSVxT-0" />
        <mxCell id="J696CwvcAE8XtiYwSVxT-2" value="" style="rounded=0;html=1;jettySize=auto;orthogonalLoop=1;fontSize=11;endArrow=block;endFill=0;endSize=8;strokeWidth=1;shadow=0;labelBackgroundColor=none;edgeStyle=orthogonalEdgeStyle;entryX=0.5;entryY=0;entryDx=0;entryDy=0;" edge="1" parent="J696CwvcAE8XtiYwSVxT-1" source="J696CwvcAE8XtiYwSVxT-3" target="J696CwvcAE8XtiYwSVxT-5">
          <mxGeometry relative="1" as="geometry">
            <mxPoint x="400" y="250" as="targetPoint" />
            <Array as="points">
              <mxPoint x="400" y="220" />
            </Array>
          </mxGeometry>
        </mxCell>
        <mxCell id="J696CwvcAE8XtiYwSVxT-3" value="StartOledTask" style="rounded=1;whiteSpace=wrap;html=1;fontSize=12;glass=0;strokeWidth=1;shadow=0;fillColor=#fff2cc;strokeColor=#d6b656;" vertex="1" parent="J696CwvcAE8XtiYwSVxT-1">
          <mxGeometry x="340" y="160" width="120" height="40" as="geometry" />
        </mxCell>
        <mxCell id="J696CwvcAE8XtiYwSVxT-4" style="edgeStyle=orthogonalEdgeStyle;rounded=0;orthogonalLoop=1;jettySize=auto;html=1;shadow=0;strokeColor=default;strokeWidth=1;align=center;verticalAlign=middle;fontFamily=Helvetica;fontSize=11;fontColor=default;labelBackgroundColor=none;endArrow=block;endFill=0;endSize=8;entryX=0.5;entryY=0;entryDx=0;entryDy=0;" edge="1" parent="J696CwvcAE8XtiYwSVxT-1" source="J696CwvcAE8XtiYwSVxT-5" target="KKV81PLKGOCwoJBtGWXN-1">
          <mxGeometry relative="1" as="geometry">
            <mxPoint x="400" y="260" as="targetPoint" />
            <Array as="points">
              <mxPoint x="400" y="250" />
              <mxPoint x="400" y="250" />
            </Array>
          </mxGeometry>
        </mxCell>
        <mxCell id="J696CwvcAE8XtiYwSVxT-5" value="Inicializace displeje" style="rounded=1;whiteSpace=wrap;html=1;fontSize=12;glass=0;strokeWidth=1;shadow=0;fontFamily=Helvetica;" vertex="1" parent="J696CwvcAE8XtiYwSVxT-1">
          <mxGeometry x="340" y="220" width="120" height="20" as="geometry" />
        </mxCell>
        <mxCell id="KKV81PLKGOCwoJBtGWXN-5" style="edgeStyle=orthogonalEdgeStyle;rounded=0;orthogonalLoop=1;jettySize=auto;html=1;entryX=0.5;entryY=0;entryDx=0;entryDy=0;shadow=0;strokeColor=default;strokeWidth=1;align=center;verticalAlign=middle;fontFamily=Helvetica;fontSize=11;fontColor=default;labelBackgroundColor=none;endArrow=block;endFill=0;endSize=8;" edge="1" parent="J696CwvcAE8XtiYwSVxT-1" source="KKV81PLKGOCwoJBtGWXN-0" target="KKV81PLKGOCwoJBtGWXN-4">
          <mxGeometry relative="1" as="geometry" />
        </mxCell>
        <mxCell id="KKV81PLKGOCwoJBtGWXN-6" value="BUTTON1" style="edgeLabel;html=1;align=center;verticalAlign=middle;resizable=0;points=[];fontFamily=Helvetica;fontSize=11;fontColor=default;labelBackgroundColor=none;" vertex="1" connectable="0" parent="KKV81PLKGOCwoJBtGWXN-5">
          <mxGeometry x="-0.075" y="1" relative="1" as="geometry">
            <mxPoint y="-11" as="offset" />
          </mxGeometry>
        </mxCell>
        <mxCell id="KKV81PLKGOCwoJBtGWXN-8" style="edgeStyle=orthogonalEdgeStyle;rounded=0;orthogonalLoop=1;jettySize=auto;html=1;entryX=0.5;entryY=0;entryDx=0;entryDy=0;shadow=0;strokeColor=default;strokeWidth=1;align=center;verticalAlign=middle;fontFamily=Helvetica;fontSize=11;fontColor=default;labelBackgroundColor=none;endArrow=block;endFill=0;endSize=8;" edge="1" parent="J696CwvcAE8XtiYwSVxT-1" source="KKV81PLKGOCwoJBtGWXN-0" target="KKV81PLKGOCwoJBtGWXN-7">
          <mxGeometry relative="1" as="geometry">
            <Array as="points">
              <mxPoint x="320" y="360" />
            </Array>
          </mxGeometry>
        </mxCell>
        <mxCell id="KKV81PLKGOCwoJBtGWXN-9" value="BUTTON2" style="edgeLabel;html=1;align=center;verticalAlign=middle;resizable=0;points=[];fontFamily=Helvetica;fontSize=11;fontColor=default;labelBackgroundColor=none;" vertex="1" connectable="0" parent="KKV81PLKGOCwoJBtGWXN-8">
          <mxGeometry x="0.1256" relative="1" as="geometry">
            <mxPoint x="-13" y="-10" as="offset" />
          </mxGeometry>
        </mxCell>
        <mxCell id="KKV81PLKGOCwoJBtGWXN-13" style="edgeStyle=orthogonalEdgeStyle;rounded=0;orthogonalLoop=1;jettySize=auto;html=1;entryX=0.5;entryY=0;entryDx=0;entryDy=0;shadow=0;strokeColor=default;strokeWidth=1;align=center;verticalAlign=middle;fontFamily=Helvetica;fontSize=11;fontColor=default;labelBackgroundColor=none;endArrow=block;endFill=0;endSize=8;" edge="1" parent="J696CwvcAE8XtiYwSVxT-1" source="KKV81PLKGOCwoJBtGWXN-0" target="KKV81PLKGOCwoJBtGWXN-12">
          <mxGeometry relative="1" as="geometry">
            <Array as="points">
              <mxPoint x="480" y="360" />
            </Array>
          </mxGeometry>
        </mxCell>
        <mxCell id="KKV81PLKGOCwoJBtGWXN-14" value="BUTTON3" style="edgeLabel;html=1;align=center;verticalAlign=middle;resizable=0;points=[];fontFamily=Helvetica;fontSize=11;fontColor=default;labelBackgroundColor=none;" vertex="1" connectable="0" parent="KKV81PLKGOCwoJBtGWXN-13">
          <mxGeometry x="-0.7826" y="1" relative="1" as="geometry">
            <mxPoint x="56" y="-9" as="offset" />
          </mxGeometry>
        </mxCell>
        <mxCell id="KKV81PLKGOCwoJBtGWXN-16" style="edgeStyle=orthogonalEdgeStyle;rounded=0;orthogonalLoop=1;jettySize=auto;html=1;entryX=0.5;entryY=0;entryDx=0;entryDy=0;shadow=0;strokeColor=default;strokeWidth=1;align=center;verticalAlign=middle;fontFamily=Helvetica;fontSize=11;fontColor=default;labelBackgroundColor=none;endArrow=block;endFill=0;endSize=8;" edge="1" parent="J696CwvcAE8XtiYwSVxT-1" source="KKV81PLKGOCwoJBtGWXN-0" target="KKV81PLKGOCwoJBtGWXN-15">
          <mxGeometry relative="1" as="geometry" />
        </mxCell>
        <mxCell id="KKV81PLKGOCwoJBtGWXN-17" value="BUTTON4" style="edgeLabel;html=1;align=center;verticalAlign=middle;resizable=0;points=[];fontFamily=Helvetica;fontSize=11;fontColor=default;labelBackgroundColor=none;" vertex="1" connectable="0" parent="KKV81PLKGOCwoJBtGWXN-16">
          <mxGeometry x="-0.0509" y="1" relative="1" as="geometry">
            <mxPoint y="-9" as="offset" />
          </mxGeometry>
        </mxCell>
        <mxCell id="KKV81PLKGOCwoJBtGWXN-0" value="Zmáčknuto nové tlačítko?" style="rhombus;whiteSpace=wrap;html=1;shadow=0;fontFamily=Helvetica;fontSize=12;align=center;strokeWidth=1;spacing=6;spacingTop=-4;" vertex="1" parent="J696CwvcAE8XtiYwSVxT-1">
          <mxGeometry x="328.5" y="300" width="143" height="80" as="geometry" />
        </mxCell>
        <mxCell id="KKV81PLKGOCwoJBtGWXN-3" style="edgeStyle=orthogonalEdgeStyle;rounded=0;orthogonalLoop=1;jettySize=auto;html=1;entryX=0.5;entryY=0;entryDx=0;entryDy=0;shadow=0;strokeColor=default;strokeWidth=1;align=center;verticalAlign=middle;fontFamily=Helvetica;fontSize=11;fontColor=default;labelBackgroundColor=none;endArrow=block;endFill=0;endSize=8;" edge="1" parent="J696CwvcAE8XtiYwSVxT-1" source="KKV81PLKGOCwoJBtGWXN-1" target="KKV81PLKGOCwoJBtGWXN-0">
          <mxGeometry relative="1" as="geometry">
            <Array as="points">
              <mxPoint x="400" y="290" />
              <mxPoint x="400" y="290" />
            </Array>
          </mxGeometry>
        </mxCell>
        <mxCell id="KKV81PLKGOCwoJBtGWXN-1" value="Určení stavu tlačítek" style="rounded=1;whiteSpace=wrap;html=1;fontSize=12;glass=0;strokeWidth=1;shadow=0;fontFamily=Helvetica;" vertex="1" parent="J696CwvcAE8XtiYwSVxT-1">
          <mxGeometry x="340" y="260" width="120" height="20" as="geometry" />
        </mxCell>
        <mxCell id="KKV81PLKGOCwoJBtGWXN-39" style="edgeStyle=orthogonalEdgeStyle;rounded=0;orthogonalLoop=1;jettySize=auto;html=1;entryX=0.5;entryY=0;entryDx=0;entryDy=0;shadow=0;strokeColor=default;strokeWidth=1;align=center;verticalAlign=middle;fontFamily=Helvetica;fontSize=11;fontColor=default;labelBackgroundColor=none;endArrow=block;endFill=0;endSize=8;" edge="1" parent="J696CwvcAE8XtiYwSVxT-1" source="KKV81PLKGOCwoJBtGWXN-4" target="KKV81PLKGOCwoJBtGWXN-31">
          <mxGeometry relative="1" as="geometry">
            <Array as="points">
              <mxPoint x="170" y="430" />
              <mxPoint x="170" y="430" />
            </Array>
          </mxGeometry>
        </mxCell>
        <mxCell id="KKV81PLKGOCwoJBtGWXN-4" value="Změna podstavu informační obrazovky" style="rounded=1;whiteSpace=wrap;html=1;fontSize=12;glass=0;strokeWidth=1;shadow=0;fontFamily=Helvetica;" vertex="1" parent="J696CwvcAE8XtiYwSVxT-1">
          <mxGeometry x="110" y="390" width="120" height="30" as="geometry" />
        </mxCell>
        <mxCell id="KKV81PLKGOCwoJBtGWXN-11" style="edgeStyle=orthogonalEdgeStyle;rounded=0;orthogonalLoop=1;jettySize=auto;html=1;entryX=0.5;entryY=0;entryDx=0;entryDy=0;shadow=0;strokeColor=default;strokeWidth=1;align=center;verticalAlign=middle;fontFamily=Helvetica;fontSize=11;fontColor=default;labelBackgroundColor=none;endArrow=block;endFill=0;endSize=8;" edge="1" parent="J696CwvcAE8XtiYwSVxT-1" source="KKV81PLKGOCwoJBtGWXN-7" target="KKV81PLKGOCwoJBtGWXN-10">
          <mxGeometry relative="1" as="geometry">
            <Array as="points">
              <mxPoint x="320" y="420" />
              <mxPoint x="320" y="420" />
            </Array>
          </mxGeometry>
        </mxCell>
        <mxCell id="KKV81PLKGOCwoJBtGWXN-7" value="odpočet 5 s" style="rounded=1;whiteSpace=wrap;html=1;fontSize=12;glass=0;strokeWidth=1;shadow=0;fontFamily=Helvetica;" vertex="1" parent="J696CwvcAE8XtiYwSVxT-1">
          <mxGeometry x="260" y="390" width="120" height="20" as="geometry" />
        </mxCell>
        <mxCell id="KKV81PLKGOCwoJBtGWXN-38" style="edgeStyle=orthogonalEdgeStyle;rounded=0;orthogonalLoop=1;jettySize=auto;html=1;entryX=0.5;entryY=0;entryDx=0;entryDy=0;shadow=0;strokeColor=default;strokeWidth=1;align=center;verticalAlign=middle;fontFamily=Helvetica;fontSize=11;fontColor=default;labelBackgroundColor=none;endArrow=block;endFill=0;endSize=8;" edge="1" parent="J696CwvcAE8XtiYwSVxT-1" source="KKV81PLKGOCwoJBtGWXN-10" target="KKV81PLKGOCwoJBtGWXN-32">
          <mxGeometry relative="1" as="geometry">
            <Array as="points">
              <mxPoint x="320" y="470" />
              <mxPoint x="320" y="470" />
            </Array>
          </mxGeometry>
        </mxCell>
        <mxCell id="KKV81PLKGOCwoJBtGWXN-10" value="loggerOn stav zapnut" style="rounded=1;whiteSpace=wrap;html=1;fontSize=12;glass=0;strokeWidth=1;shadow=0;fontFamily=Helvetica;" vertex="1" parent="J696CwvcAE8XtiYwSVxT-1">
          <mxGeometry x="260" y="430" width="120" height="30" as="geometry" />
        </mxCell>
        <mxCell id="KKV81PLKGOCwoJBtGWXN-37" style="edgeStyle=orthogonalEdgeStyle;rounded=0;orthogonalLoop=1;jettySize=auto;html=1;entryX=0.5;entryY=0;entryDx=0;entryDy=0;shadow=0;strokeColor=default;strokeWidth=1;align=center;verticalAlign=middle;fontFamily=Helvetica;fontSize=11;fontColor=default;labelBackgroundColor=none;endArrow=block;endFill=0;endSize=8;" edge="1" parent="J696CwvcAE8XtiYwSVxT-1" source="KKV81PLKGOCwoJBtGWXN-12" target="KKV81PLKGOCwoJBtGWXN-34">
          <mxGeometry relative="1" as="geometry">
            <Array as="points">
              <mxPoint x="480" y="420" />
              <mxPoint x="480" y="420" />
            </Array>
          </mxGeometry>
        </mxCell>
        <mxCell id="KKV81PLKGOCwoJBtGWXN-12" value="loggerOn stav vypnut" style="rounded=1;whiteSpace=wrap;html=1;fontSize=12;glass=0;strokeWidth=1;shadow=0;fontFamily=Helvetica;" vertex="1" parent="J696CwvcAE8XtiYwSVxT-1">
          <mxGeometry x="420" y="390" width="120" height="20" as="geometry" />
        </mxCell>
        <mxCell id="KKV81PLKGOCwoJBtGWXN-28" style="edgeStyle=orthogonalEdgeStyle;rounded=0;orthogonalLoop=1;jettySize=auto;html=1;entryX=0.5;entryY=0;entryDx=0;entryDy=0;shadow=0;strokeColor=default;strokeWidth=1;align=center;verticalAlign=middle;fontFamily=Helvetica;fontSize=11;fontColor=default;labelBackgroundColor=none;endArrow=block;endFill=0;endSize=8;" edge="1" parent="J696CwvcAE8XtiYwSVxT-1" source="KKV81PLKGOCwoJBtGWXN-15" target="KKV81PLKGOCwoJBtGWXN-18">
          <mxGeometry relative="1" as="geometry">
            <Array as="points">
              <mxPoint x="630" y="430" />
              <mxPoint x="630" y="430" />
            </Array>
          </mxGeometry>
        </mxCell>
        <mxCell id="KKV81PLKGOCwoJBtGWXN-15" value="zobrazen průvodce kalibrací" style="rounded=1;whiteSpace=wrap;html=1;fontSize=12;glass=0;strokeWidth=1;shadow=0;fontFamily=Helvetica;" vertex="1" parent="J696CwvcAE8XtiYwSVxT-1">
          <mxGeometry x="570" y="390" width="120" height="30" as="geometry" />
        </mxCell>
        <mxCell id="KKV81PLKGOCwoJBtGWXN-27" style="edgeStyle=orthogonalEdgeStyle;rounded=0;orthogonalLoop=1;jettySize=auto;html=1;entryX=0.5;entryY=0;entryDx=0;entryDy=0;shadow=0;strokeColor=default;strokeWidth=1;align=center;verticalAlign=middle;fontFamily=Helvetica;fontSize=11;fontColor=default;labelBackgroundColor=none;endArrow=block;endFill=0;endSize=8;" edge="1" parent="J696CwvcAE8XtiYwSVxT-1" source="KKV81PLKGOCwoJBtGWXN-18" target="KKV81PLKGOCwoJBtGWXN-19">
          <mxGeometry relative="1" as="geometry">
            <Array as="points">
              <mxPoint x="630" y="470" />
              <mxPoint x="630" y="470" />
            </Array>
          </mxGeometry>
        </mxCell>
        <mxCell id="KKV81PLKGOCwoJBtGWXN-18" value="čekání na stisk tlačítka" style="rounded=1;whiteSpace=wrap;html=1;fontSize=12;glass=0;strokeWidth=1;shadow=0;fontFamily=Helvetica;" vertex="1" parent="J696CwvcAE8XtiYwSVxT-1">
          <mxGeometry x="570" y="440" width="120" height="30" as="geometry" />
        </mxCell>
        <mxCell id="KKV81PLKGOCwoJBtGWXN-26" style="edgeStyle=orthogonalEdgeStyle;rounded=0;orthogonalLoop=1;jettySize=auto;html=1;entryX=0.5;entryY=0;entryDx=0;entryDy=0;shadow=0;strokeColor=default;strokeWidth=1;align=center;verticalAlign=middle;fontFamily=Helvetica;fontSize=11;fontColor=default;labelBackgroundColor=none;endArrow=block;endFill=0;endSize=8;" edge="1" parent="J696CwvcAE8XtiYwSVxT-1" source="KKV81PLKGOCwoJBtGWXN-19" target="KKV81PLKGOCwoJBtGWXN-20">
          <mxGeometry relative="1" as="geometry">
            <Array as="points">
              <mxPoint x="630" y="530" />
              <mxPoint x="630" y="530" />
            </Array>
          </mxGeometry>
        </mxCell>
        <mxCell id="KKV81PLKGOCwoJBtGWXN-19" value="odpočet 5 s" style="rounded=1;whiteSpace=wrap;html=1;fontSize=12;glass=0;strokeWidth=1;shadow=0;fontFamily=Helvetica;" vertex="1" parent="J696CwvcAE8XtiYwSVxT-1">
          <mxGeometry x="570" y="490" width="120" height="30" as="geometry" />
        </mxCell>
        <mxCell id="KKV81PLKGOCwoJBtGWXN-25" style="edgeStyle=orthogonalEdgeStyle;rounded=0;orthogonalLoop=1;jettySize=auto;html=1;entryX=0.5;entryY=0;entryDx=0;entryDy=0;shadow=0;strokeColor=default;strokeWidth=1;align=center;verticalAlign=middle;fontFamily=Helvetica;fontSize=11;fontColor=default;labelBackgroundColor=none;endArrow=block;endFill=0;endSize=8;" edge="1" parent="J696CwvcAE8XtiYwSVxT-1" source="KKV81PLKGOCwoJBtGWXN-20" target="KKV81PLKGOCwoJBtGWXN-22">
          <mxGeometry relative="1" as="geometry">
            <Array as="points">
              <mxPoint x="630" y="580" />
              <mxPoint x="630" y="580" />
            </Array>
          </mxGeometry>
        </mxCell>
        <mxCell id="KKV81PLKGOCwoJBtGWXN-20" value="kalibrace osy" style="rounded=1;whiteSpace=wrap;html=1;fontSize=12;glass=0;strokeWidth=1;shadow=0;fontFamily=Helvetica;" vertex="1" parent="J696CwvcAE8XtiYwSVxT-1">
          <mxGeometry x="570" y="540" width="120" height="30" as="geometry" />
        </mxCell>
        <mxCell id="KKV81PLKGOCwoJBtGWXN-23" style="edgeStyle=orthogonalEdgeStyle;rounded=0;orthogonalLoop=1;jettySize=auto;html=1;entryX=1;entryY=0.5;entryDx=0;entryDy=0;shadow=0;strokeColor=default;strokeWidth=1;align=center;verticalAlign=middle;fontFamily=Helvetica;fontSize=11;fontColor=default;labelBackgroundColor=none;endArrow=block;endFill=0;endSize=8;" edge="1" parent="J696CwvcAE8XtiYwSVxT-1" source="KKV81PLKGOCwoJBtGWXN-22" target="KKV81PLKGOCwoJBtGWXN-18">
          <mxGeometry relative="1" as="geometry">
            <Array as="points">
              <mxPoint x="710" y="599" />
              <mxPoint x="710" y="455" />
            </Array>
          </mxGeometry>
        </mxCell>
        <mxCell id="KKV81PLKGOCwoJBtGWXN-24" value="kalibrace os opakovaná 6x" style="edgeLabel;html=1;align=center;verticalAlign=middle;resizable=0;points=[];fontFamily=Helvetica;fontSize=11;fontColor=default;labelBackgroundColor=none;rotation=-90;" vertex="1" connectable="0" parent="KKV81PLKGOCwoJBtGWXN-23">
          <mxGeometry x="0.075" relative="1" as="geometry">
            <mxPoint x="10" y="7" as="offset" />
          </mxGeometry>
        </mxCell>
        <mxCell id="KKV81PLKGOCwoJBtGWXN-30" style="edgeStyle=orthogonalEdgeStyle;rounded=0;orthogonalLoop=1;jettySize=auto;html=1;entryX=0.5;entryY=0;entryDx=0;entryDy=0;shadow=0;strokeColor=default;strokeWidth=1;align=center;verticalAlign=middle;fontFamily=Helvetica;fontSize=11;fontColor=default;labelBackgroundColor=none;endArrow=block;endFill=0;endSize=8;" edge="1" parent="J696CwvcAE8XtiYwSVxT-1" source="KKV81PLKGOCwoJBtGWXN-22" target="KKV81PLKGOCwoJBtGWXN-29">
          <mxGeometry relative="1" as="geometry">
            <Array as="points">
              <mxPoint x="630" y="630" />
              <mxPoint x="630" y="630" />
            </Array>
          </mxGeometry>
        </mxCell>
        <mxCell id="KKV81PLKGOCwoJBtGWXN-22" value="zobrazení zprávy o měření" style="rounded=1;whiteSpace=wrap;html=1;fontSize=12;glass=0;strokeWidth=1;shadow=0;fontFamily=Helvetica;" vertex="1" parent="J696CwvcAE8XtiYwSVxT-1">
          <mxGeometry x="570" y="590" width="120" height="30" as="geometry" />
        </mxCell>
        <mxCell id="KKV81PLKGOCwoJBtGWXN-36" style="edgeStyle=orthogonalEdgeStyle;rounded=0;orthogonalLoop=1;jettySize=auto;html=1;entryX=0.5;entryY=0;entryDx=0;entryDy=0;shadow=0;strokeColor=default;strokeWidth=1;align=center;verticalAlign=middle;fontFamily=Helvetica;fontSize=11;fontColor=default;labelBackgroundColor=none;endArrow=block;endFill=0;endSize=8;" edge="1" parent="J696CwvcAE8XtiYwSVxT-1" source="KKV81PLKGOCwoJBtGWXN-29" target="KKV81PLKGOCwoJBtGWXN-35">
          <mxGeometry relative="1" as="geometry">
            <Array as="points">
              <mxPoint x="630" y="680" />
              <mxPoint x="630" y="680" />
            </Array>
          </mxGeometry>
        </mxCell>
        <mxCell id="KKV81PLKGOCwoJBtGWXN-29" value="výpočet kalibračních konstant" style="rounded=1;whiteSpace=wrap;html=1;fontSize=12;glass=0;strokeWidth=1;shadow=0;fontFamily=Helvetica;" vertex="1" parent="J696CwvcAE8XtiYwSVxT-1">
          <mxGeometry x="570" y="640" width="120" height="30" as="geometry" />
        </mxCell>
        <mxCell id="KKV81PLKGOCwoJBtGWXN-47" style="edgeStyle=orthogonalEdgeStyle;rounded=0;orthogonalLoop=1;jettySize=auto;html=1;entryX=0.5;entryY=0;entryDx=0;entryDy=0;shadow=0;strokeColor=default;strokeWidth=1;align=center;verticalAlign=middle;fontFamily=Helvetica;fontSize=11;fontColor=default;labelBackgroundColor=none;endArrow=block;endFill=0;endSize=8;" edge="1" parent="J696CwvcAE8XtiYwSVxT-1" source="KKV81PLKGOCwoJBtGWXN-31" target="KKV81PLKGOCwoJBtGWXN-40">
          <mxGeometry relative="1" as="geometry">
            <Array as="points">
              <mxPoint x="170" y="540" />
              <mxPoint x="400" y="540" />
            </Array>
          </mxGeometry>
        </mxCell>
        <mxCell id="KKV81PLKGOCwoJBtGWXN-31" value="guiState = INFO" style="rounded=1;whiteSpace=wrap;html=1;fontSize=12;glass=0;strokeWidth=1;shadow=0;fontFamily=Helvetica;" vertex="1" parent="J696CwvcAE8XtiYwSVxT-1">
          <mxGeometry x="110" y="440" width="120" height="20" as="geometry" />
        </mxCell>
        <mxCell id="KKV81PLKGOCwoJBtGWXN-48" style="edgeStyle=orthogonalEdgeStyle;rounded=0;orthogonalLoop=1;jettySize=auto;html=1;entryX=0.5;entryY=0;entryDx=0;entryDy=0;shadow=0;strokeColor=default;strokeWidth=1;align=center;verticalAlign=middle;fontFamily=Helvetica;fontSize=11;fontColor=default;labelBackgroundColor=none;endArrow=block;endFill=0;endSize=8;" edge="1" parent="J696CwvcAE8XtiYwSVxT-1" source="KKV81PLKGOCwoJBtGWXN-32" target="KKV81PLKGOCwoJBtGWXN-40">
          <mxGeometry relative="1" as="geometry">
            <Array as="points">
              <mxPoint x="320" y="540" />
              <mxPoint x="400" y="540" />
            </Array>
          </mxGeometry>
        </mxCell>
        <mxCell id="KKV81PLKGOCwoJBtGWXN-32" value="guiState = RECORD" style="rounded=1;whiteSpace=wrap;html=1;fontSize=12;glass=0;strokeWidth=1;shadow=0;fontFamily=Helvetica;" vertex="1" parent="J696CwvcAE8XtiYwSVxT-1">
          <mxGeometry x="260" y="480" width="120" height="20" as="geometry" />
        </mxCell>
        <mxCell id="KKV81PLKGOCwoJBtGWXN-49" style="edgeStyle=orthogonalEdgeStyle;rounded=0;orthogonalLoop=1;jettySize=auto;html=1;entryX=0.5;entryY=0;entryDx=0;entryDy=0;shadow=0;strokeColor=default;strokeWidth=1;align=center;verticalAlign=middle;fontFamily=Helvetica;fontSize=11;fontColor=default;labelBackgroundColor=none;endArrow=block;endFill=0;endSize=8;" edge="1" parent="J696CwvcAE8XtiYwSVxT-1" source="KKV81PLKGOCwoJBtGWXN-34" target="KKV81PLKGOCwoJBtGWXN-40">
          <mxGeometry relative="1" as="geometry">
            <Array as="points">
              <mxPoint x="480" y="540" />
              <mxPoint x="400" y="540" />
            </Array>
          </mxGeometry>
        </mxCell>
        <mxCell id="KKV81PLKGOCwoJBtGWXN-34" value="guiState = INFO" style="rounded=1;whiteSpace=wrap;html=1;fontSize=12;glass=0;strokeWidth=1;shadow=0;fontFamily=Helvetica;" vertex="1" parent="J696CwvcAE8XtiYwSVxT-1">
          <mxGeometry x="420" y="430" width="120" height="20" as="geometry" />
        </mxCell>
        <mxCell id="KKV81PLKGOCwoJBtGWXN-50" style="edgeStyle=orthogonalEdgeStyle;rounded=0;orthogonalLoop=1;jettySize=auto;html=1;entryX=0.5;entryY=0;entryDx=0;entryDy=0;shadow=0;strokeColor=default;strokeWidth=1;align=center;verticalAlign=middle;fontFamily=Helvetica;fontSize=11;fontColor=default;labelBackgroundColor=none;endArrow=block;endFill=0;endSize=8;" edge="1" parent="J696CwvcAE8XtiYwSVxT-1" source="KKV81PLKGOCwoJBtGWXN-35" target="KKV81PLKGOCwoJBtGWXN-40">
          <mxGeometry relative="1" as="geometry">
            <Array as="points">
              <mxPoint x="550" y="700" />
              <mxPoint x="550" y="540" />
              <mxPoint x="400" y="540" />
            </Array>
          </mxGeometry>
        </mxCell>
        <mxCell id="KKV81PLKGOCwoJBtGWXN-35" value="guiState = INFO" style="rounded=1;whiteSpace=wrap;html=1;fontSize=12;glass=0;strokeWidth=1;shadow=0;fontFamily=Helvetica;" vertex="1" parent="J696CwvcAE8XtiYwSVxT-1">
          <mxGeometry x="570" y="690" width="120" height="20" as="geometry" />
        </mxCell>
        <mxCell id="KKV81PLKGOCwoJBtGWXN-42" style="edgeStyle=orthogonalEdgeStyle;rounded=0;orthogonalLoop=1;jettySize=auto;html=1;shadow=0;strokeColor=default;strokeWidth=1;align=center;verticalAlign=middle;fontFamily=Helvetica;fontSize=11;fontColor=default;labelBackgroundColor=none;endArrow=block;endFill=0;endSize=8;" edge="1" parent="J696CwvcAE8XtiYwSVxT-1" source="KKV81PLKGOCwoJBtGWXN-40" target="KKV81PLKGOCwoJBtGWXN-41">
          <mxGeometry relative="1" as="geometry">
            <Array as="points">
              <mxPoint x="474" y="640" />
            </Array>
          </mxGeometry>
        </mxCell>
        <mxCell id="KKV81PLKGOCwoJBtGWXN-43" value="RECORD" style="edgeLabel;html=1;align=center;verticalAlign=middle;resizable=0;points=[];fontFamily=Helvetica;fontSize=11;fontColor=default;labelBackgroundColor=none;" vertex="1" connectable="0" parent="KKV81PLKGOCwoJBtGWXN-42">
          <mxGeometry x="-0.1614" y="-2" relative="1" as="geometry">
            <mxPoint x="18" y="-12" as="offset" />
          </mxGeometry>
        </mxCell>
        <mxCell id="KKV81PLKGOCwoJBtGWXN-45" style="edgeStyle=orthogonalEdgeStyle;rounded=0;orthogonalLoop=1;jettySize=auto;html=1;entryX=0.5;entryY=0;entryDx=0;entryDy=0;shadow=0;strokeColor=default;strokeWidth=1;align=center;verticalAlign=middle;fontFamily=Helvetica;fontSize=11;fontColor=default;labelBackgroundColor=none;endArrow=block;endFill=0;endSize=8;" edge="1" parent="J696CwvcAE8XtiYwSVxT-1" source="KKV81PLKGOCwoJBtGWXN-40" target="KKV81PLKGOCwoJBtGWXN-44">
          <mxGeometry relative="1" as="geometry">
            <Array as="points">
              <mxPoint x="320" y="640" />
            </Array>
          </mxGeometry>
        </mxCell>
        <mxCell id="KKV81PLKGOCwoJBtGWXN-46" value="INFO" style="edgeLabel;html=1;align=center;verticalAlign=middle;resizable=0;points=[];fontFamily=Helvetica;fontSize=11;fontColor=default;labelBackgroundColor=none;" vertex="1" connectable="0" parent="KKV81PLKGOCwoJBtGWXN-45">
          <mxGeometry x="0.0085" y="2" relative="1" as="geometry">
            <mxPoint x="-7" y="-12" as="offset" />
          </mxGeometry>
        </mxCell>
        <mxCell id="KKV81PLKGOCwoJBtGWXN-40" value="guiState" style="rhombus;whiteSpace=wrap;html=1;shadow=0;fontFamily=Helvetica;fontSize=12;align=center;strokeWidth=1;spacing=6;spacingTop=-4;" vertex="1" parent="J696CwvcAE8XtiYwSVxT-1">
          <mxGeometry x="328.5" y="565" width="143" height="80" as="geometry" />
        </mxCell>
        <mxCell id="KKV81PLKGOCwoJBtGWXN-52" style="edgeStyle=orthogonalEdgeStyle;rounded=0;orthogonalLoop=1;jettySize=auto;html=1;shadow=0;strokeColor=default;strokeWidth=1;align=center;verticalAlign=middle;fontFamily=Helvetica;fontSize=11;fontColor=default;labelBackgroundColor=none;endArrow=block;endFill=0;endSize=8;" edge="1" parent="J696CwvcAE8XtiYwSVxT-1" source="KKV81PLKGOCwoJBtGWXN-41">
          <mxGeometry relative="1" as="geometry">
            <mxPoint x="340" y="270" as="targetPoint" />
            <Array as="points">
              <mxPoint x="474" y="760" />
              <mxPoint x="100" y="760" />
              <mxPoint x="100" y="270" />
            </Array>
          </mxGeometry>
        </mxCell>
        <mxCell id="KKV81PLKGOCwoJBtGWXN-41" value="zobrazení času délky měření" style="rounded=1;whiteSpace=wrap;html=1;fontSize=12;glass=0;strokeWidth=1;shadow=0;fontFamily=Helvetica;" vertex="1" parent="J696CwvcAE8XtiYwSVxT-1">
          <mxGeometry x="414" y="680" width="120" height="30" as="geometry" />
        </mxCell>
        <mxCell id="KKV81PLKGOCwoJBtGWXN-51" style="edgeStyle=orthogonalEdgeStyle;rounded=0;orthogonalLoop=1;jettySize=auto;html=1;entryX=0;entryY=0.5;entryDx=0;entryDy=0;shadow=0;strokeColor=default;strokeWidth=1;align=center;verticalAlign=middle;fontFamily=Helvetica;fontSize=11;fontColor=default;labelBackgroundColor=none;endArrow=block;endFill=0;endSize=8;" edge="1" parent="J696CwvcAE8XtiYwSVxT-1" source="KKV81PLKGOCwoJBtGWXN-44" target="KKV81PLKGOCwoJBtGWXN-1">
          <mxGeometry relative="1" as="geometry">
            <Array as="points">
              <mxPoint x="320" y="760" />
              <mxPoint x="100" y="760" />
              <mxPoint x="100" y="270" />
            </Array>
          </mxGeometry>
        </mxCell>
        <mxCell id="KKV81PLKGOCwoJBtGWXN-44" value="zobrazení živých údajů závisejících na podstavu informační obrazovky" style="rounded=1;whiteSpace=wrap;html=1;fontSize=12;glass=0;strokeWidth=1;shadow=0;fontFamily=Helvetica;" vertex="1" parent="J696CwvcAE8XtiYwSVxT-1">
          <mxGeometry x="260" y="680" width="120" height="60" as="geometry" />
        </mxCell>
      </root>
    </mxGraphModel>
  </diagram>
</mxfile>
